/* XPM */
static char *_80613142ebe4108d7ffc2fe5fe87da8gdFTyevVRbkqe5Uf[] = {
/* columns rows colors chars-per-pixel */
"64 64 252 2 ",
"   c #030202",
".  c #0B0301",
"X  c #0B0905",
"o  c #070909",
"O  c #130302",
"+  c #1B0303",
"@  c #130906",
"#  c #1C0B05",
"$  c #140B09",
"%  c #1C0C0B",
"&  c #1E050A",
"*  c #18110D",
"=  c #191616",
"-  c #120F13",
";  c #240C0B",
":  c #2C0D0B",
">  c #240605",
",  c #2A110E",
"<  c #23110E",
"1  c #35130B",
"2  c #270D11",
"3  c #241313",
"4  c #2B1313",
"5  c #281918",
"6  c #341413",
"7  c #36141A",
"8  c #3D1C1C",
"9  c #371918",
"0  c #350A0E",
"q  c #38221E",
"w  c #2C211E",
"e  c #3C1D23",
"r  c #281F22",
"t  c #2A2526",
"y  c #3A2625",
"u  c #363535",
"i  c #2D2D33",
"p  c #1D2025",
"a  c #45191B",
"s  c #53171D",
"d  c #480711",
"f  c #49221E",
"g  c #461D23",
"h  c #5A1923",
"j  c #442324",
"k  c #4A2524",
"l  c #4D2A2B",
"z  c #46272A",
"x  c #532C2C",
"c  c #592926",
"v  c #49322F",
"b  c #56322C",
"n  c #4E2C33",
"m  c #562D32",
"M  c #4B3436",
"N  c #543433",
"B  c #5C3435",
"V  c #5D3B3A",
"C  c #58373A",
"Z  c #66292B",
"A  c #64342B",
"S  c #623434",
"D  c #643B3C",
"F  c #6B3B3C",
"G  c #6A3736",
"H  c #743B3B",
"J  c #75373A",
"K  c #6C2A35",
"L  c #58423E",
"P  c #69423D",
"I  c #74433C",
"U  c #3F3F41",
"Y  c #583E42",
"T  c #643C42",
"R  c #6B3E44",
"E  c #783C42",
"W  c #484648",
"Q  c #5D4342",
"!  c #564648",
"~  c #585658",
"^  c #584E51",
"/  c #6B4344",
"(  c #684647",
")  c #744344",
"_  c #7B4445",
"`  c #74454B",
"'  c #744B4C",
"]  c #7C4B4B",
"[  c #794846",
"{  c #7A524B",
"}  c #694C53",
"|  c #7B4C53",
" . c #734B51",
".. c #695758",
"X. c #7C5354",
"o. c #7C5B5B",
"O. c #765657",
"+. c #6A504F",
"@. c #7B635A",
"#. c #735C63",
"$. c #5E6165",
"%. c #686669",
"&. c #796769",
"*. c #737175",
"=. c #5B5C61",
"-. c #823A3E",
";. c #853B48",
":. c #834B4C",
">. c #86464A",
",. c #83534C",
"<. c #87544C",
"1. c #824D52",
"2. c #8B4E53",
"3. c #814E59",
"4. c #845353",
"5. c #8B5454",
"6. c #8B5A54",
"7. c #84555A",
"8. c #845B5C",
"9. c #8C5B5B",
"0. c #885758",
"q. c #925555",
"w. c #94565B",
"e. c #935C5C",
"r. c #9A5B5D",
"t. c #965858",
"y. c #924954",
"u. c #896259",
"i. c #94615D",
"p. c #9A635F",
"a. c #8B5D62",
"s. c #875862",
"d. c #935D64",
"f. c #985E66",
"g. c #8B6263",
"h. c #8A6668",
"j. c #956364",
"k. c #9A6364",
"l. c #9C6A66",
"z. c #95636B",
"x. c #9B656B",
"c. c #9C6B6C",
"v. c #956A68",
"b. c #9A726B",
"n. c #9C6B73",
"m. c #976B73",
"M. c #887878",
"N. c #997677",
"B. c #8A6F6F",
"V. c #A36B6B",
"C. c #A56769",
"Z. c #A5736D",
"A. c #A36D73",
"S. c #A86D75",
"D. c #A47474",
"F. c #AC7274",
"G. c #A4757B",
"H. c #AB747B",
"J. c #A57B7C",
"K. c #AC7B7C",
"L. c #AA7B74",
"P. c #B37A7C",
"I. c #BA7D7D",
"U. c #B27577",
"Y. c #B16F79",
"T. c #A05C62",
"R. c #A7837C",
"E. c #B6837C",
"W. c #97827F",
"Q. c #7E7E83",
"!. c #9C7D84",
"~. c #887B83",
"^. c #AC7C83",
"/. c #A77982",
"(. c #B37D83",
"). c #BA7C82",
"_. c #B67B87",
"`. c #C27F84",
"'. c #8A8489",
"]. c #998489",
"[. c #9A9197",
"{. c #A88586",
"}. c #B58384",
"|. c #BB8384",
" X c #B5848A",
".X c #BB848B",
"XX c #B38B8A",
"oX c #BC8B8D",
"OX c #BA8A85",
"+X c #B9958A",
"@X c #BB8C92",
"#X c #A89599",
"$X c #BC9393",
"%X c #BB9795",
"&X c #A28D95",
"*X c #AA9DA4",
"=X c #A9A5A8",
"-X c #B7ADB4",
";X c #B7B6BB",
":X c #B4AAAF",
">X c #9DA0A7",
",X c #C28285",
"<X c #C3848B",
"1X c #C48B8D",
"2X c #C98A8B",
"3X c #C4968B",
"4X c #C48C92",
"5X c #CC8C92",
"6X c #C38A96",
"7X c #C59393",
"8X c #CC9394",
"9X c #C99999",
"0X c #D39C9C",
"qX c #D49799",
"wX c #D18F92",
"eX c #CCA396",
"rX c #D4A29C",
"tX c #D6A89B",
"yX c #C7A08F",
"uX c #CB9DA2",
"iX c #DA9CA1",
"pX c #D49DA4",
"aX c #CAA6A8",
"sX c #DCA4A5",
"dX c #DBACA4",
"fX c #D9A7A9",
"gX c #DCB2A7",
"hX c #CBB2B7",
"jX c #E3ABAC",
"kX c #E4A8A9",
"lX c #E7B4AB",
"zX c #EAAEB2",
"xX c #E3ACB4",
"cX c #E5B2B2",
"vX c #EBB3B5",
"bX c #EDB6B9",
"nX c #ECBAB7",
"mX c #F2B6BA",
"MX c #F3BBBC",
"NX c #F0B5B7",
"BX c #F1B8AF",
"VX c #E1A4A0",
"CX c #F4C3BD",
"ZX c #EDC0BA",
"AX c #B8BCC2",
"SX c #C7BCC2",
"DX c #ECBAC1",
"FX c #F5BDC3",
"GX c #D6C8CD",
"HX c #F8C4C6",
"JX c #FEC9D3",
"KX c #FAD5CF",
/* pixels */
"o o o   o o           X . # ; , , 6 1 P X.{ [ P u.i.Z.}.OXOX9XrXdXcXnXMXMXMXHXHXcX0XfXdXjX0X1X|.C.:.H c a 9 > O $ . . @ $ $ < 5 ",
"= - o o               X . # ; 9 9 9 1 ' ' 4.[ [ i.Z.OX3X8X3X9X0XsXjXcXvXnXMXMXMXvXjXjXcXjXsX8X,XU.p.4.F l 8 ; # @ . . X @ $ % 3 ",
"t =   o     X         . @ % ; q j 1 1 ( { u.[ ) i.E.3X9XrXrXdXlXjXcXvXnXnXMXMXMXMXmXMXMXmXzXkX8X,XF.k.:.S g : ; @ . . . @ @ $ % ",
"= =   o o o         . . $ < ; q l 1 1 P 8.6.] G V.1X9X9XsXsXcXnXnXnXMXCXHXHXHXHXHXHXMXMXMXmXvXkXqXI.F.e.] x 6 , O . . . @ X @ @ ",
"  o X X o         o X . % 4 , j N a 1 P 8.6.6.F L.7X9X9X0XsXjXcXnXMXCXCXHXHXHXFXmXmXbXmXmXmXmXzXkX8XI.V.0.D 8 4 # O . . X X X X ",
"W =   X o     o   o . . # , 9 j B b : P 4.v.l.,.E.0XrXrX0XsXcXvXnXCXCXCXMXMXmXbXbXbXbXMXMXMXvXvXkX0X2XF.9.) l 6 > O . . X X X X ",
"'.W o o o         o . @ & , 8 l B V : D 8.c.b.0.}.jXjXgXdXjXvXMXMXCXMXMXMXMXbXcXcXbXmXFXmXMXvXvXzXkX8X|.k.] B 8 > + O @ $ o . o ",
"*.^ -     X       . . % ; , j x B V 8 b 8.u.v.{ c.fXgXjXcXjXcXMXMXMXMXMXbXvXcXjXcXbXFXFXnXMXcXnXnXjXpX7XG.4.D j : + O @ $ X o X ",
"%.%.=     X     X X . @ 4 6 j N L V j 8 B P ' / ] oXfXcXcXjXjXzXNXmXmXvXzXzXvXcXcXbXnXcXxXfXfXnXnXcXfX7X}.l.R x 6 > O O % $ . X ",
"%.%.u   X X   X .   O % , 6 x N N v 6 : 9 j l B F c.oXpXfXjXkXkXzXjXkXsXkXzXbXbXvXgXaX7XoXXX@X9XuXaXfXaXoXD.X.B a : + # % $ . @ ",
"..%.W   o     o . @ % % , 6 x f q 9 > > 6 8 8 l m ` c.}.1X0X0X0XiXiXiX0XiXkXjXjXfX7X XD.a.X.' ' X.g.G. X}.K.v.D k 6 > # * % . @ ",
"~ ~ W $ o     X   @ # ; 9 6 9 : : > > > > 9 8 9 l B | c.K.1X4X8X8X8X8XqXqXqX0X8X4XD.4.D l j j z l x V ' 8.c.c.X.N 8 ; # 3 % @ @ ",
"~ ~ ~ t   X   . . @ ; z j 6 : : , 9 q 8 : 6 a a j m F 4.c.K..X1X1X1X1X4X5X5X1X).c.` x a 8 8 7 6 8 k x S / ' 4.X.( l 6 + 5 % $ $ ",
"~ ~ ~ u   o X . . # 9 v 9 : 1 1 9 N V V N l l m x B S F 0.x.H.P.|.1X1X<X.X.XH.e.) c a a g x n N V / D B S B D / ' V 9 + ; % % $ ",
"W W W u o X X . . 3 v N 9 j b b l B / / / V B D T T D S ) 4.j.D.(..X1X|.P.D.e.) F F F R `  .O.s.o.o.8.8.7.X.' ' O.O.z # @ % % % ",
"u u u u $ . . . . q Q L N V P ( B x B j a j j l C B R S S / 4.c.D.K.|.(.A.a.1.` | | | / T T C Y ( ( X.7.a.j.g.g.h.B.Q 4 O 3 3 3 ",
"~ ~ ~ ..M . @   . y Q l k x B b x a a 8 8 7 4 4 7 z m m D T / a.c.L.K.^.z.0.8.X.` D m z j z M C C ( C / / | / / ( o.O.9 . % % 4 ",
"[.[.[.].} & % . . % # j D / D P x B N N z e y e e g g g a g B 8. X$XoXK.m.' V C x l n n z M Q ..O.} R R ` a.v.a.C ; : % . t 3 2 ",
"=X=X&X&.} 4 O . . O 4 O.X.' / D D k 8 6 + O & & 7 7 7 z 8 : > > a D x 9 : 0 n n j 8 j 7 ; ; % 4 z T | | R 4.z.J.J.j + 4 @ 5 3 3 ",
"=X:X~.n C e O . 3 3 v h.' ` ) B x 6 j 9 + + & ; 8 e : 0 j y + 6 ' X.X.V > j V e 8 7 e 7 + + + 2 Y ( g F | 1.0.g.J.N l Q * . % 3 ",
":X:X].j 7 7 & . w y N o.' ) G c a j ( V n C C C C n z l ( Y 6 ( N.$X/.N.C n T g 7 8 z z e j N C h.X.D m ` 1.0.c.J.m o.B.* . $ % ",
":X-X#Xn 0 7 > O q y Q B.X.) F S S / '  .o.o.O.O. .( `  .o. .j o.aXJXDXm.m  .N. .T  .o.m.m.N./.!.N.m.c.1._ 1.5.z.^.B h.N.q . # O ",
"-X;X*X( 7 g : + z v C b.8.4.9.4.` ] ` | X. .| X.` 7.` | a.R C {.DXFXHXfX .` @Xh.8.a.m.G.G.n.n./.N.n.7.n.x.d.V.H.J.` J.N.y . ; 4 ",
"AX;XhX#.7 l g + 8 ( N b.v.v.j.9.d.1.1.| | | 3.3.s.7.s.m.R 0  .uXDXJXFXxXa.g 7.@Xm.7.7.s.z.m.f.A.n.z.A.x.)..X(.9XJ.D @XN.y # 7 7 ",
"AX;XSX!.C B m > a ' b v.c.n.D.c.x.j.d.d.d.z.z.z.f.z.z.G.R a h.fXDXJXJXDX}.g D  X9X^.G.d.s.d.d.f.m.A.H..XoX7X9XuXm.X.$XG.e + n T ",
";XAXhXaX .R ` a a { x g.n.D.b.K.G.H.G.n.n.n.x.d.z.m.m.m.| m G.uXJXJXHXbXfXR | d./.^.^.^.^.H.H._.6X6XpX8XpXuX9XfXX.N.9Xn.7 > T s.",
"AX;X;XhX!.` 1.S 0 9.S { K.n.}.D.G.D.A.A.A.n.x.x.n.z.n.n.B 4.G.uXHXJXFXxXfXD.) D.X.a.s.7.a.d.z.A.(.6XpXxXfXfXuX$X` XX@Xn.> > ` z.",
"AXAX;XhXaXO.X.] s ) 4.c v. XK.J.D.z.j.z.c.n.n.G.^.^. X7.c j.D.pXJXHXbXfXfXfXR ^.$Xz.| | | 3.3.s.d.x.H.4X9XcXDXg.8.9X Xa.> O 6 s.",
";X;X;X-XhXN.X.8.) ) j.) F 0.c.c.j.j.c.G.}.@X@X@X X}.z.c 0.A.D.pXJXHXvXkXfXjXk.1.7X7X7X^.n.A./._._.^.^.K.^.A.j.8.9X@X X` + O > h.",
"AX:X-X;XhX#XO.X.X.4.4.j.j.4.) ) ` ] 0.j.c.c.x.j.a.4.9.] 0.A.|.sXHXHXbXsXiXzX5X_ j.G.G./. X X X^.^./.^.S.f.n.A.4X7X X XB + O n B.",
"'.*.Q.[.=X:XB.o.8.X.,.4.j.9.d.j.e.d.k.A.D.A.D.K. X}.A.:.f.Y.,XkXHXHXzXiX0XzXsXV.V.0XfX9XoX.X6X@X X^._.6XfX0X4X4X.X X(.B O O ....",
"%.%.%.%.'.-X].o.8.] 4.4.4.0.d.x.x.H..X4X4X7X4X1X1XP._ >.F.Y.2XzXFXFXvXkX0X5XiX,X2.A.8XxXDXHXHXDXxXxXxXkXpXpX8X4X.X.X/.| } } #.Y ",
"^ ^ $.$.*.=X#Xh.h.g.` 9.9.e.j.d.S.K.)..X1X1X1X|.P.5.G 5.C.|.qXmXmXmXmXkXwX2X,X2XS.>.2.F.).<XqXiXiXkXkXiXpX0X0X4X.X<XS.s.&X#X#.B.",
"~ ~ =.$.*.>X=X&.h.g.] 9.9.9.x.A.F.K.).<X1X|.H.V.:.Z G q.P.,XiXzXmXmXmXmXqX5X`.).,XC.2.>.>.q.f.C.H.).<X<X.X.X X.X4X_.A.d.!.#X&X*X",
"W '.Q.$.'.=X#X^ Y X.X.4.4.d.c.A.H.U.U.U.V.t.>.H H H 2.C.Y.|.0XzXmXFXMXzXiXVXwXP.`.5X,XS.T.w.w.d.f.A.Y.).(.(. X.X.X_.n.^.].[.:X-X",
"o i W *.=X-X=XC 9 j D 4.9.e.x.F.F.V.f.5.:._ _ _ :.q.k.F.P.<XqXiXzXzXzXkXiXqXqX`.I.wX5XwX5X,X).Y.S.S.Y.)..X(.(.(._._.n./.&X*X'.=X",
"o   o = U %.'.M 3 4 B 4.9.e.k.c.k.e.2.:.:.q.t.q.C.C.C.r.Y.P.2XqXiXkXkXkXqXwXqXwXI.`.I.2XwX5X5X`._.(.Y.P.(.K.(.(.(. Xz.M.~.[.[.>X",
"o o o     o = $ % 3 N { 4.j.l.9.6.6.q.6.q.r.r.r.V.F.C.t.C.F.I.|.1X8X0X5X,X).,X`.I.,X<X2X2X2XwX5X5X<X).(.).P.}. X X^.n & t i i u ",
"    o o o     o . . 8 O.8.j.i.9.0.t.e.t.t.k.V.F.U.U.r.>.J t.F.F.P.P.).F.C.r.C.I.2X8XwX5X5X5X5X5X5X4X.X(.(.P. X X X/.j 2 -   o   ",
"o         X       . 4 +.8.9.0.4.,.0.e.k.C.F.I.|.|.I.C.G d c 2.k.V.V.k.H Z K t.2XqX0XiX8X5X5X<X5X4X4X.X(.).(.(.^.{.h.Q ].'.~.~ p ",
"      . . .   X     % Q 8.a.9.9.0.e.j.i.F.U.I.|.I.P.r.H s a s ) ] 5.) H H q.F.1X0XjXsXiXqX5X8X1X.X.XoX.X(.|.(.^.{.B.C } ..'.SX=X",
"o   . . . . X     . . Q o.X.g.4.9.i.i.j.Z.U.U.U.P.U.t._ G S c G E ] :.5.t.C.I.1X0XsXsXsXsXqX5X1X X XoX X).(.(.}.XXh.C M ^ #.'.*X",
"    . < O O . . .   . z o.8.| 9.9.e.e.k.V.Z.l.l.Z.Z.t.:.[ [ ) ) ] | 1.k.V.F.|.8X0X9X0X0X0X8X4X1X}.}.}.}.(.(.}.oX{.( Y Y M Y #.].",
". L #X].&.j O O . . . < +.o.a.0.0.6.9.k.j.i.6.e.j.V.i.i.9.0.5.:.] _ :.V.P.|.1X0X8X7X8XOX1X8X4X1X(.J.^.(.(.(. X@XB.z M M M M Y ..",
"5 #XhXaX%XXX{ : O O O O Q o.7.9.6.6.6.e.6.<.,.i.l.c.j.c.x.k.k.5.] _ 2.P.1X8X8X8X8XoX1XP.K. X|.}.K.L.L.K.}.}.}.XXo.; 9 v z z y M ",
"3 W.{.XXoX}.7XL.b O . O y O.4.0.6.5.5.6.:.[ ,.i.j.Z.c.V.k.k.V.F.C.f.x.).<X5XqX0X0X1XOXK.D.K.K.K.H.G.G.L.}.}.^.R...# O 5 y z z 9 ",
"O C h.N.c.|.E.}.L.( + . , C | 1.5.5.5.<.:.[ ] ,.,.0.6.0._ H _ d.C.f.w.w.q.f.P.1X7X}.K.L.c.K.K.P.D.c.n.G.K.K.J.{.@.# O # C y 4 y ",
"O + ( v.c.V.E.E.E.+X@., O 8 F [ 5.5.6.<.<.] ] _ I G c s d 0 d h J E J K s h G :.V.c.j.l.j.K.(.K.V.c.c.D.L.L.J.XXM.# . . v N.8 + ",
". . + V v.J.L.R.3X3X+XR.b > k ) _ ,.] ,.9.] ,.<.>.Z d d s Z h d d d d s h s s h G F 0.e.i.E.P.V.f.e.l.D.D.D.J.9X].% @ . * W.XX/ ",
"  . O O N h.b.OX3XtXeXeXOXP 1 c H [ { { ' u.,.6.r.5._ E J J E ;.K K ;.y.w.y.>._ _ l.j.j.V.V.F.k.q.e.l.b.Z.c.}.eX{.5 . X   &.%X9X",
"    . O O 9 g.{.+XyXtXyXdX9X,.c c G I { { 4.6.6.t.t.6.2.>.E ;.>.;.y.w.f.f.w.w.C.U.I.C.C.V.C.f.2.C.).8X7X3X}.7X9X{.% . $ . +.%X$X",
"    . . . O , o.+X3X3XtXtXeXtXZ.c c I I ,.[ :.<.t.t.t.q.q.5.2.y.;.y.y.y.w.r.r.F.I.F.Z.C.k.q.2.r.,X8X0X0XrX3X9X9XN.# $ X . L 9X}.",
"      o     . # @.+X+XyX3XtXtXtXE.A c { [ I <.[ 5.t.t.q.q.q.q.y.>.-.y.t.T.C.C.C.C.V.Z.p.t.J q.F.2X2X1XOXOX1X1X9Xh.% * * @ Q %XoX",
"    o       . . ; B.+XOX3XeXtXtXlXE.c A ,.,.,.<.<.t.e.q.q.q.2.>.J J >.q.q.r.C.C.V.Z.V.e.H H C.I.2X|.I.P.E.1X1XeX+.@ X * . +.$X}.",
"o       o o   . . y R.3X3X3XtXlXdXdXL.A A ,.,.<.<.6.q.q.5.<.>.J Z Z J >.q.r.r.C.V.l.l.,.Z t.I.2X1X|.U.Z.P.1X7X%Xv . * - . ..%XJ.",
"  o o o   o       . L +X+XeXtXlXlXtXtXZ.A G <.,.<.<.6.6.5.<.>.H K Z J >.q.r.p.C.Z.Z.p.A I L.qX0XqX8XE.F.|.1XoXN.9 $ - X * &.XXJ.",
"                    . ( +X9XdXdXlXgXeXrXZ.G I 6.I <.i.i.e.:.:.>.J H J >.q.k.F.Z.V.l.,.c p.1XlXlXtX9X|.U.}.}.%Xo.# $ - o w M.!.XX",
"                      O ( $X9XdXgXgXtXrX9XL.I I 6.,.6.,.q.:.>.E E H G _ 2.6.k.V.l.l.G I E.1XqXlXdXrX}.L.}.XXXXN O X X X u ].!.aX",
"                        O O.%X7XrXgXdXrX0XrXE.6.G ] ,.] :._ >.H J J J E 1.e.f.e.e.5.c 6.3XqX8XkXtXeX}.L.R.$XB.% * = = o ^ M.&XGX",
"                        O O +.XX9XeXtXlX0X0XdXOX6.A G ,._ :.>.E H J E _ 2.q.5.0.4.A A L.qXkXtXkX9X3Xb.J.{.{.Q . * u t * *.M.hXKX",
"                      o   . O O.R.3XtXlXlXtXtXtX+Xu.c G I :.:._ E E >.>.>.6.5.4.H a [ 3XsXlXBXlX0XR.b.N.R.B.3 @ = ^ 5 u *.#XGXGX",
"                      o   . O # u.OXrXtXBXlXBXlXgXtXj.c A :.H _ _ :.:._ _ 5.[ F c f l.rXcXBXCXBXdXL.b.N.N.Q . @ u W = ^ M.-XSXGX",
"                o             q { b.3XdXBXlXCXHXKXCXCX7XI c [ I ] ) I I I G c c a [ 3XgXnXCXHXBXdXL.8.N.O.O . * y t t &.[.SXGXGX",
"                      o     * ..u.u.E.3XkXCXBXCXHXKXKXKXnXe.a c c A A A c k c c c u.dXnXZXCXCXMX9Xv.g.O., . % t * * ! M.:XGXGXGX"
};
