/* XPM */
static char *c801c958ce514b2f910675a0cfd06958QGegyQpaGRCNS8Tq[] = {
/* columns rows colors chars-per-pixel */
"64 64 235 2 ",
"   c #040302",
".  c #0A0303",
"X  c #0C0A06",
"o  c #040509",
"O  c #0C0C0C",
"+  c #07080A",
"@  c #140C0B",
"#  c #170608",
"$  c #14120D",
"%  c #1C110F",
"&  c #0E0C12",
"*  c #150D13",
"=  c #141414",
"-  c #1B1413",
";  c #15151A",
":  c #19151B",
">  c #1C1B1B",
",  c #171A16",
"<  c #0E1312",
"1  c #220006",
"2  c #23020C",
"3  c #2B030D",
"4  c #280A13",
"5  c #330C16",
"6  c #241B1A",
"7  c #2A1C1C",
"8  c #231517",
"9  c #37131C",
"0  c #26211D",
"q  c #1B1D23",
"w  c #171720",
"e  c #251D22",
"r  c #381A23",
"t  c #1E2327",
"y  c #242322",
"u  c #2B2423",
"i  c #23242A",
"p  c #252A2C",
"a  c #2C2C2C",
"s  c #282527",
"d  c #332425",
"f  c #342B2B",
"g  c #37282A",
"h  c #2B2C32",
"j  c #262A32",
"k  c #332D33",
"l  c #3C2D33",
"z  c #2C3438",
"x  c #3B3334",
"c  c #34353B",
"v  c #3C3539",
"b  c #35393B",
"n  c #3C3A3B",
"m  c #353434",
"M  c #36312D",
"N  c #451E29",
"B  c #421A24",
"V  c #4C232E",
"C  c #44232B",
"Z  c #4C2532",
"A  c #4C2A32",
"S  c #462D34",
"D  c #532632",
"F  c #532C36",
"G  c #542D39",
"H  c #5A2E39",
"J  c #443434",
"K  c #4B3235",
"L  c #4C353A",
"P  c #443B3B",
"I  c #4B3B3C",
"U  c #453738",
"Y  c #54333B",
"T  c #5C333D",
"R  c #533A3D",
"E  c #62333D",
"W  c #612F3A",
"Q  c #3F403B",
"!  c #4A403E",
"~  c #3A3C42",
"^  c #2D3A40",
"/  c #453D43",
"(  c #4D3C42",
")  c #5D3541",
"_  c #533E42",
"`  c #5C3C43",
"'  c #5E3D48",
"]  c #633542",
"[  c #643A45",
"{  c #6C3A46",
"}  c #633C49",
"|  c #6B3D4A",
" . c #693545",
".. c #713B4A",
"X. c #3A4449",
"o. c #3F4850",
"O. c #444444",
"+. c #4B4243",
"@. c #43444B",
"#. c #4C444A",
"$. c #4A4A4B",
"%. c #544344",
"&. c #5B4346",
"*. c #53444A",
"=. c #5D454B",
"-. c #544B4C",
";. c #5D4A4C",
":. c #524946",
">. c #5A504E",
",. c #4B4D53",
"<. c #434C51",
"1. c #544D53",
"2. c #5C4E52",
"3. c #5C4F59",
"4. c #4A5359",
"5. c #545256",
"6. c #5C5354",
"7. c #545459",
"8. c #5D545B",
"9. c #5A595A",
"0. c #624147",
"q. c #64444B",
"w. c #6B434B",
"e. c #624B4E",
"r. c #694A4F",
"t. c #72414D",
"y. c #66554E",
"u. c #6C4551",
"i. c #634D53",
"p. c #6B4D53",
"a. c #664F59",
"s. c #744552",
"d. c #744B54",
"f. c #794C56",
"g. c #744C59",
"h. c #7C4E5B",
"j. c #7A4355",
"k. c #645355",
"l. c #6A5355",
"z. c #635856",
"x. c #6B5A53",
"c. c #63545B",
"v. c #6B555B",
"b. c #645B5B",
"n. c #6D5B5C",
"m. c #73545B",
"M. c #7B535C",
"N. c #735C5D",
"B. c #7A5A5F",
"V. c #725457",
"C. c #6C605D",
"Z. c #73615D",
"A. c #79615E",
"S. c #5B5D62",
"D. c #535E62",
"F. c #645C62",
"G. c #6C5C62",
"H. c #6C5761",
"J. c #7C5661",
"K. c #745C62",
"L. c #7B5D64",
"P. c #7C5E69",
"I. c #735762",
"U. c #5C6367",
"Y. c #6C6263",
"T. c #666469",
"R. c #6C636A",
"E. c #68676B",
"W. c #746364",
"Q. c #7B6365",
"!. c #756866",
"~. c #7C6966",
"^. c #73646A",
"/. c #7C656A",
"(. c #746B6B",
"). c #7D6A6A",
"_. c #736B72",
"`. c #7C6B71",
"'. c #6B7479",
"]. c #7B7373",
"[. c #787879",
"{. c #6E6E70",
"}. c #824E5B",
"|. c #83535D",
" X c #89545F",
".X c #88595F",
"XX c #845563",
"oX c #8A5562",
"OX c #835B64",
"+X c #8B5B65",
"@X c #845C69",
"#X c #8B5C6A",
"$X c #925E69",
"%X c #826366",
"&X c #8C6367",
"*X c #836A66",
"=X c #84656B",
"-X c #8C646C",
";X c #846B6C",
":X c #8B6B6D",
">X c #92646C",
",X c #936A6E",
"<X c #8B726E",
"1X c #85716D",
"2X c #8D6770",
"3X c #846D71",
"4X c #8C6C72",
"5X c #936C73",
"6X c #9B6B73",
"7X c #966573",
"8X c #847273",
"9X c #8C7373",
"0X c #8D7A7C",
"qX c #887778",
"wX c #937475",
"eX c #95747A",
"rX c #9B747C",
"tX c #94797B",
"yX c #987778",
"uX c #90726F",
"iX c #A37079",
"pX c #7A7B82",
"aX c #6A7D81",
"sX c #997C81",
"dX c #887F80",
"fX c #A47B81",
"gX c #798286",
"hX c #878689",
"jX c #938C90",
"kX c #A49997",
"lX c #A0828A",
"zX c #A5A19C",
"xX c #AFACA8",
"cX c #919CA2",
"vX c #E5EDF3",
/* pixels */
"4.4.~ a 0 - X @ X X * 6 x :.z.z.n.;.U J U I %.&.l.L.%X=X=X%X=X%X&XOXB.w.` ` L S r 7 6 - X   X - g J %.! I P u X   X . @ , n O.O.",
"'.D.a a 0 @ X $ X 6 u k :.>.! J 6 % # # % 7 g K =.V.L.=X;X%X%X%X&XOXM.w.` ` Y J g g g u 6 @ @ # # % 7 x I P M - X     = , a $.9.",
"'.7.z y $ $ @ X - u v O.+.f - . @ - 0 u 7 7 d L ` p.L.=X2X=X=X=X%XOXm.q.&.q.=.=.=.%.I J l d 7 8 % @ @ - 6 f ! f # @     > y a E.",
"cX,.p p $ $ X X m n n a > - - - 6 u U P ( I U I =.l.L.=X4X4X=X=X%X%XN.r.q.V.K.Q.).K.k.i.=._ S d - @ X % - 6 f f -   . $ y , > $.",
"vXU., y = X X > O.m y > > @ @ u x U -.2.8.G.v.l.l.N.L.=X4X5X4X=X%X%XL.p.a.L.3X4X3XQ.K.K.K.l.;.&.+.k 6 @ @ @ 6 x 6 @ X X X , 5.7.",
"vX,.y , X O $ Q O.m > O O - e f +.2.Y.Y.^.(.^.^.K.L./.=X5XeX4X-X=X2X%XM.V.L.=X=X/.L.K.K.K.n.N.W.b.z.-.d - # @ 6 6 X   O O = b $.",
"hXp p = X X , 9.n > : 6 > u P -.-.6.b.G.^.).^.K.K.L.%X=X5XeX5X2X2X2X-XJ.M.L.P.=XP.L.K.K.K.v.v.v.c.c.6.-.x 8 @ - u @ O O = , , > ",
"b p t O <   a 5.n v v / #.1.6.6.k.k.2.i.k.v.K.^.K.K./.=X4XeX5X5X5X-X@XL.L.L.L.=XL.m.i.i.i.v.v.v.G.G.i.2.*.P x y - , O o O , > a ",
"p q ; O   , n O.n #.k k *.F.Y.^.G.n.K.W.K.l.v.K.v.K.^.L.4X4X5X%X5X4X@XJ.J.M.L.m.a.v.K.K.K.K.W./.=X/.K.v.( f x O.~ p + & + O O e ",
"t > O + a O.$.c n / s / c.`.(.^.W.N.K.K.K.K.K.K.k.k.K.K.;X4X:X%X=X2X%XJ.B.v.I.K.L.K.G.v.v.v.K.^.P.=XP.L.i.l e : c X.b O O + O * ",
"; & O p 7.S.,.c k / v c.G.(.`.`./.W.K.K.L.P.K.G.k.2.k.l.N.=X-X=X=X/.L.N.l.l.v.K.v.H.K.H.H.K.K.^.P.=X=XL.P.=.s : > b @.b + & + * ",
"& O q 7.T.7.~ a a v 8.^.`.`.^.^.K.K.K.K.I.K.K.K.G.k.2.k.n.Q.4X:X=XW.v.k.i.n.G.^.K.K.K.G.v.v.v.a.I.L.=XL./.G.k : ; t X.S.h +   & ",
"; : c U.U.<.h q h / R.Y.^.K.K.n.n.G.K.K.H.K.^.^.G.6.%.k.n.Q.wX:XW.v.;.&.&.v.v.G.G.v.v.c.c.c.i.*._ =.v.v.P.^.*.e = ; p $.@.& o o ",
"y h 5.U.U.<.z t b F.R.R.v.i.k.;.;.2.k.c.v.G.^.Y.R.c.+.%.%.&.p.q.;.%._ _ ;.v.G.^.G.G.c.2.#.( U l S I _ i.H.G.H.e + ; q c $.5.@.p ",
"i c E.U.U.<.z t @.{.F.G.k.=._ L P / #.1.3.H.R.^.^.F.8.*.;.e.l.V.v.e.&.;.k.c.G.G.F.c.8.1.#.#.1.-.v x l ( i.v.K.l & & q i ,.S.9.c ",
"> h '.E.4.<.^ q ,._.T.6./ x v 1.,.1.7.8.3.c.R._.R.F.R.2.k.p.p.B.N.e.` e.n.c.G.F.c.8.F.E._.hXhXpXE.$.x f ( i.v.( : & w q / h ; ; ",
", b E.U.4.o.z i 9.T.9.#.h ~ U.'.gXpX[.E.9.8.8.F.T.5._.-.( N.V.M.M.r.q.&.^.6.F.c.8.8.F.pXhX'.4.D.'.pX9.k d _ k.*.- * : ; @.c + = ",
", m U.,.@.X.j h S.T.5.O.@.'.gXaXX.4.'.jXjX_.8.R.R.b.].+.e.p.L.f.B.V.q.&.8X8.b.F.c.R.pXjXpXo.X.X.4.pXjXR./ +.2.2.e O q : ,.c   O ",
"> t T.4.<.~ h h F.T.-.O.S.gX'.^ o.X.z E.hX_._._.b.].0X%.V.m.B.f.M.p.&.L 8XG.^.R.R.R._.[.b z 4.^ t ,.[.T.#./ *.c.u + ; i U.z   o ",
"= < {.4.4.X.t c S.7.P n 5.T.X.; z X.p O.F.F.^.3.#.hX^.&.p.M.s.f.M.p.r.I !.qX2.6.c.c.3.8.k i q q w @.E.b.*.-.-.*.f & = h hX; o o ",
"=   U.E.X.X.i @.S.7.#.-.5.7.~ h h O.1.9.b.8.6.b.6.hX;.e.r.f.h.|.f.q.0.` i.lX*.v.l.i.H.a.G.8.#./ ~ #.#./ +.2.b.z.n = O 7.[.o   o ",
",   p hXX.z c 7.E.F.6.-.+.#.#.1.F.{.R.2.2.n.c.i.^.c._ e.r.f.h.h.|.d.[ ` L =X3Xa.K.I.I.i.v.G._.c.F.c.1.1.*.%.c.^.1.= : jXc o     ",
"+ o   S.E.j c S.T.T.Y.F.6.c.F.R.^.G.k.i.l.v.G.G.^.J &.i.V.M.M.|.f.s.[ q.) ` lXK.m.=XL.P.H.a.c.R.^.^.G.k.k.c.G.n.b.f 5.[.:   O   ",
"    o t gX$.~ T.E.Y.Y.G.8.F.F.G.n.i.K.K.m.N.l.^.;.U %.l.V.d.B.+XXXf.w.[ 0.A L.eXB.K./.`.3X(.^.G.G.Y.!.Y.G.Y.G.^.6.G.hX#.e     + ",
"o     ; 5.[.7.T.(.R.Y.n.Y.^.G.G.n.K.K.L.K.Q.Q.e.I R =.V.p.f.|.oXXXM.w.[ Y ` K Q.3XK.).).`.].].(.(.!.!.(.(.^.Y.Y.(.qX^.2.x .   . ",
"  o   y 9.E.R.(.(.!.^.^.^.^.(.).W.^.Q.=XQ.N.v._ K R q.B.f.M.XX+X#XXXs.] Y ` Y &.N.8X0X`.qXqX[.[.].].].].].qXhXhX!.^.c.2.-.6 . . ",
"    . a 6.6.Y.b.^.!.(.].`.).^./.)./.W./.K.l.e.R R ` w.f.d.|.+X$X$Xh.s.w.T F Y ` q.N.hXkXkXzXzXzXzXzXzXxXxXxXjX].!.n.b.k.z.d . . ",
"    @ v z.b.Y.b.z.z.b.W.).`.3X3XQ.W.K.K.v.r.r.q.0.q.w.w.s.oX>X6X6X Xs.{ ] T ` ` p.p.v./.tXlXkXxXzXzXkXkXhX].Y.Y.Y.n.n.z.6.U X X ",
"o   > :.Y.].^.^.C.n.n.n.N.W.K.n.N.N.N.N.V.p.p.r.q.w.| [ t.XX7X7X7XoXj. .T T T [ d.d.d.V.m.N.A.W.!.(.!.^.!.!.!.W.W.N.n.z.6.:.@   ",
"  X y 6.!.].(.!.Y.W.^.W.W.Q.W.N.L.L.B.m.M.V.d.w.w.[ [ E [ s.+X#X+XXXs.| E E T | d.d.M.B.f.OX:XL.Q.Q.~.).).).).Q./.W.n.l.>.:.-   ",
"  X a 9.(.].qX).~.).)././.=X;X;X%X&XoXM.M.M.d.w.w.H V N V H s.g.M.M.] V V T [ T f.XXf.f.M.oX+X-X-X%X=X2X4X;X;X;XQ.Q.N.l.;.:.u X ",
"X   m 9.(.qX0X~.).~.).;X3X;X=X=X&X&X&X X|.|.s.| ] 9 1 # 2 9 Y } } H 5 1 1 5 T w.w.|.|.XX X+X&X-X>X5XwX5X4X5X4X:X%X%XA.l.e.:.f   ",
"  X P 6.^.qXqX;X;X~.;X<X:X*X%X:X-X&X+X|. X|.t...] 9 1 1 4 B G T ) N 3 1 1 3 H ] t.+XoXoX+X+X>X,X5X5X5X5X5X5X5X5X-X%XQ.n.;.;.f   ",
"X O P 6.W.qX8X;X;X;X-X:X:X-X-X:X,X&X&X.X X}... .| T C r C Z F T T H N 3 3 B E { { oXoXoXoX+X>X7X,X5X5X5X5X5X,X-X:X%XB.n.>.-.d . ",
"o O v 6.Y.8X1X).;X;X:X-X:X4XwX:X:X&X+X.X.X}.{ E ] d.q.Y T ] ] [ } ` ` A H ] T E {  XoX+X+X+X>X2X5X5X5X5X5X>X-X&X-X%XL.v.;.:.u   ",
"  X m 6.C.).).).~.;X:X:X:XwXwXwX,X&X+X+X Xf.{ T F [ ) A Y } w.u.g.} ` Y ) ] H E .. X+X+X#X#X-X5X5X5XrX5X5X2X-X&X%X%XL.N.;.U 6   ",
"  X f >.Y.).).).Q.;X-X:XwXwXwXwX5X,X&X+X X}.t.] H A C A ) } u.M.M.u.q.H D H W E t.oX$X$X&X&X-X:X5XeXrXeX5X5X-X-X=X%XL.N.;.J -   ",
"  X u -.C.~.).).;X;X:XwXwXwXwXwX,X,X>X+X+X|.f.[ T A A ) q.d.h.M.g.p.u.T D D E E j. X$X+X&X&X:X5XeXrXrXrXeX5X5X-X:X%XL.N.;.J %   ",
"  + > :.C.).).).;X:XwXwXyXyXwXwX6X6X>X&X+XXXf.T Z Y ` u.V.L.L.J.M.d.u.T F V D ] f. X>X&X>X,X6XwXrXrXrXrXeXeX5X2X=X%XB.V.&.l @ . ",
"    - +.n.).).).;X4XwXwXyXyXyXyXrXrX6X>X+XXXs.F V ` V.J.L.@X@X@XL.J.M.` T A V ] d.M.&X&X>X6X6X6XrXrXrXrXrXeX5X4X=X%XL.v._ d # . ",
"    @ +.b.^.).~.;X:XwXwXwXwXyXwXrXrX>X&XXXf.` Y ) p.m.L.@XXX@X@XL.L.B.p.u.) F Y w.f.#X+X6XiX6XiXrXrXrXrXsXrX5X5X=XL.L.l.I 7 . . ",
"o X X v C.!.~.;X;X9X9XwXwXwXwXwXyXeX-XB.r.` Y R q.u.M.=X#XXXXXJ.L.%X=XJ.g.q.` A T 0.B.&X>X6XiXiXrXsXrXrXsXeX5X4X=XL.K.l.I 7 X . ",
"o O X f b.!.!.;X;X9X9XwXtXwX:XwX9X;XL.l.&.` ` q.g.@X@XJ.#X7X#XXX+X+X2X-XOXg.q.R K R 0.B.=X5XfXrXrXsXrXrXrXrX5X4X=XL.v.k.U 6 X X ",
"X X @ f z.^.!.~.~.9X9XwXyXwXwXwX~.Z.k.;.&.q.p.M.d.M.-X#X@X#X@X@X#XXX>X2X2XJ.g.q._ _ K &.Q.;XwXwXrXsXrXrXrXeX5X2X%XL.l.i.J - @ X ",
"X O $ d z.^.~.~.).;X9X<X<XtXtX9Xn.k.;.&.i.l.v.m.J.J.h.g.h.f.s.@Xh.}.XX}.#X@XJ.g.i._ J L ;.W.).0XtXsXtXeXeX5X2X%XL.L.l.e.J % % $ ",
"O - - 0 b.!.W.~.).;X9X9X9XtX9XA.e.e.e.i.n.m.v.p.u.} [ [ [ ) G G ) [ ] ] s.h.h.J.p.&.&._ U ;.x.).9XsXsXtXeX4X:X%XL.L.v.e.J 8 8 8 ",
"@ 6 u u b.W.W.~.).;X1X9XwX9X~.x.e.l.V.l.m.p.=.Y N G Z Z Y G Z S S L F F Z H [ u.g.p.V.l.&.;.;.k.).tXsXtX9X4X=X%XL.L.V.e.J 7 6 6 ",
"- u x x z.C.^.!.).;X;X9X9X;XN.N.v.N.K.l.p.) C 5 C q.' Y p./.a.d S =.=.G 5 r V Z [ q.V.N.N.N.;.e.N.8XtX0X9X;X=X%XB.N.l.q.J d 7 6 ",
"- 0 +.I z.Y.C.!.).).).8X1X~.A.Q.L.=XL.0.A N 9 2 r r 2 2 r r - . . 4 5 4 # # 5 4 9 Y p.K.W.W.W.n.K.).0X0X4X=X/.Q.N.v.l.;.J J g d ",
"d % %.%.k.W.!.W.~.!.~.1X9X~.A.~.;XQ.` C B 9 5 5 5 r 5 4 4 4 # # 2 2 # 2 # # 4 4 # 9 A i./././.).W.3X0XwX;X=XQ.N.K.v.k.e.I L L %.",
"k.7 I b.z.n.^.n.~.~.~.;X9X~.N.Q.N.e.K C B B D H T ] D D ) T F Z Z Z Z Z N r r 5 2 5 9 A l./.).3XQ.8XwX8X=XQ.K.V.N.l.e.;.R %.&.l.",
"3XI S z.n.n.n.n.!.~.Q.).9X;XZ.Q.N.l.p.0.T H E ]  .{  . ..... . . .| | [ T T F Z N F A F r.L./.).).8XqX;X/.Q.K.N.v.v.l.=.&.e.r.l.",
"qXK._ ;.n.W.n.n.W.Q.Z.Q.9X9X%XQ.Q.;XQ.N.M.d.[ { | t.j.j.j.j.j.j.j.s.s.w.| ] [ w.[ r.M.L.L.N.N.).;XqX8X;X/.K.N.K.v.v.l.&.0.p.m.V.",
"qXW.N.;.n.W.n.n.N.^.Z.Q.9XtX<X*X~.~.~.*X%XL.B.J.J.h.h.h.h.XX}.j.f.g.g.d.d.d.w.w.M.M.%X4X;XQ.N.Q.qXqX8X).Q.K.N.K.N.l.l.q.r.B.OXM.",
").n.Q.v.n.K.n.W.N.W.W.Q.;X9X<X;X<X*X<X9X%XQ.;X=X4X2X2XL.M.B.M.g.M.XXXXM.L.=X%XOX%X=X;X=X;X;XQ.).qXqX;XW.Q.N.n.n.K.l.i.i.q.L.%XB.",
").)./.K.n.W.N.N.N.N.Z.Z.Q.;X:X;X;X<X<X<X:X:X;X4X3X=X).m.i.v.B.m.V.B.OXOX;X4X=X:X%X4X9X3XqXqX).8X8X8XQ.N.K.K.n.n.v.l.k.=.S i.B.L.",
"K.)./.Q.K.n.n.N.K.W.N.W.A.Q.*X*X*XuXwX:X:X9X:X;X;X/.W.n.i.i.i.e.r.N.%X=X/.;X;X;X;X;X:X9X8X8X;X).).).Q.W.K.N.n.n.z.z.k.L # r e.V.",
"l.K.).W.;.n.K.l.N.W.N.Z.A.A.Q.*X*XuXwX<XwXwX9X4X;X/.W.n.k.i.i.&.r.K.Q.=X/.;X;X;X:X4X9X:X;X;X^.N.Q.~.Z.N.N.n.n.b.z.k.z.g . . % 8 ",
"_ v.v.%.d c.N.z.n.W.N.W.Q.n.Z.~.*X<XwXwXwXwXwX9X4X;X).W.v.k.e.&.p.Q.Q.;X;X3X4X4X4XwXwX:X;X/.n.k.W.Q.N.n.n.n.n.z.z.2.6.6 .     . ",
"7 *.d . . ;.b.z.b.W.Z.Z.Q.n.x.Z.*X<XwXwXwX9X9X9X9X9X3X/.n.k.e.=.l./.Q.9X9X9XeX9XwXwX4X:X3XQ.l.l.Z.Q.N.n.N.n.n.z.z.6.+.X .     . ",
").I 7 8 . l n.b.z.Y.Z.N.!.N.y.x.A.1X9X<X9X<X9XwX9X9X9X/.K.V.l.p.N.=XQ.9XwXeXtXwXtXwX2X=X=XW.l.n.n.Z.n.n.N.x.l.z.z.z.f           ",
"^.I d - # 6 b.z.z.n.Z.n.Z.Z.y.x.Z.).<X<X9X9XwXwXwX9X3X=X=XQ.K.N.L.=X%X9XwXeXeXwXeXwX;XK.N.N.z.z.x.n.n.N.N.l.l.l.2.6.6 . . X     ",
"6.P U u @ @ -.b.b.b.C.n.Z.Z.x.x.Z.~.<X9XwX9X4X4X4X4X=X%X;X;X%XQ./.=X/.;X3X9X9X9X9X;X).n.z.b.z.>.z.n.n.n.n.x.l.k.;.%.@ .       O ",
"b.-.:.U - . f z.b.z.n.C.n.x.y.x.N.Q.;X<X<X:X=X%X=X=X%XL.=X=XQ.Q.Q.Q.Q.Q.Q.).~.;X).Q.W.n.k.6.>.-.k.C.n.x.l.l.p.e.;.U # . . . O y "
};
