/* XPM */
static char *deda04641c164c86d78e902aa93545e4amPEYQ99mtlZpwBL[] = {
/* columns rows colors chars-per-pixel */
"64 64 252 2 ",
"   c #160C0D",
".  c #311C1E",
"X  c #381E23",
"o  c #291B2E",
"O  c #3A2529",
"+  c #3B2838",
"@  c #2E2838",
"#  c #462E35",
"$  c #483339",
"%  c #4D3036",
"&  c #652B39",
"*  c #62363D",
"=  c #73273E",
"-  c #691E33",
";  c #261C45",
":  c #182C59",
">  c #2B244A",
",  c #35274C",
"<  c #272A58",
"1  c #382C53",
"2  c #3C3357",
"3  c #35344F",
"4  c #2F3C71",
"5  c #0B1848",
"6  c #483747",
"7  c #573C46",
"8  c #473657",
"9  c #543C56",
"0  c #442D4B",
"q  c #7A2E46",
"w  c #673741",
"e  c #783648",
"r  c #503C62",
"t  c #384872",
"y  c #56434B",
"u  c #594757",
"i  c #4D444D",
"p  c #674649",
"a  c #73464D",
"s  c #654958",
"d  c #784A54",
"f  c #6A545B",
"g  c #795559",
"h  c #494966",
"j  c #5A4768",
"k  c #5A5667",
"l  c #595676",
"z  c #4E4D75",
"x  c #6A4A61",
"c  c #654C68",
"v  c #685567",
"b  c #73536C",
"n  c #785A68",
"m  c #6C5373",
"M  c #695878",
"N  c #7B5B74",
"B  c #765A78",
"V  c #6A4E6F",
"C  c #7B6569",
"Z  c #796479",
"A  c #626079",
"S  c #863A53",
"D  c #81354E",
"F  c #874858",
"G  c #85575E",
"H  c #944C5F",
"J  c #81615F",
"K  c #954D62",
"L  c #9A4E66",
"P  c #835C62",
"I  c #895C65",
"U  c #975867",
"Y  c #825E78",
"T  c #A2586D",
"R  c #A95A75",
"E  c #B15D7E",
"W  c #836463",
"Q  c #8D6C6C",
"!  c #896769",
"~  c #936464",
"^  c #93656C",
"/  c #936A6D",
"(  c #9B6B6D",
")  c #98666A",
"_  c #95716F",
"`  c #8B6474",
"'  c #84637B",
"]  c #8D6B7C",
"[  c #876778",
"{  c #946C72",
"}  c #9C6C72",
"|  c #946C7D",
" . c #9B6C77",
".. c #8A7378",
"X. c #947373",
"o. c #9C7374",
"O. c #93747D",
"+. c #9D737A",
"@. c #9C7A7B",
"#. c #987978",
"$. c #A46374",
"%. c #A26C74",
"&. c #AB657B",
"*. c #AB6C7C",
"=. c #A76377",
"-. c #B2637D",
";. c #A27375",
":. c #A4747B",
">. c #AA757C",
",. c #A47B7C",
"<. c #AB7A7E",
"1. c #A37976",
"2. c #B2747E",
"3. c #AA827E",
"4. c #A5817D",
"5. c #4E588A",
"6. c #695E85",
"7. c #765E81",
"8. c #526692",
"9. c #7C6383",
"0. c #796885",
"q. c #796D96",
"w. c #7C7496",
"e. c #68668D",
"r. c #5571AD",
"t. c #7B79A8",
"y. c #6E77B2",
"u. c #667DC1",
"i. c #856B84",
"p. c #8D6B82",
"a. c #856987",
"s. c #936D83",
"d. c #996E85",
"f. c #87728B",
"g. c #937483",
"h. c #9B7384",
"j. c #9D7B83",
"k. c #93748D",
"l. c #9C768B",
"z. c #987B89",
"x. c #876E96",
"c. c #897797",
"v. c #967C95",
"b. c #987894",
"n. c #B86885",
"m. c #A47584",
"M. c #AB7581",
"N. c #A57C83",
"B. c #AC7C83",
"V. c #A57B8A",
"C. c #AB7C8B",
"Z. c #A3768A",
"A. c #B27C84",
"S. c #B37E8A",
"D. c #B57786",
"F. c #A67A96",
"G. c #AF6F84",
"H. c #877AA4",
"J. c #C3718D",
"K. c #C57392",
"L. c #6588A9",
"P. c #7285B3",
"I. c #7E8099",
"U. c #5F87C5",
"Y. c #718FCA",
"T. c #75ADD6",
"R. c #998289",
"E. c #998295",
"W. c #8C8096",
"Q. c #A58282",
"!. c #AC8384",
"~. c #AC8986",
"^. c #A4838D",
"/. c #AD838B",
"(. c #AE898A",
"). c #A7888E",
"_. c #B38386",
"`. c #B4848A",
"'. c #BA858D",
"]. c #B48A8C",
"[. c #BB8A8D",
"{. c #B78885",
"}. c #B7918E",
"|. c #AB8794",
" X c #B48591",
".X c #BB8691",
"XX c #B58B93",
"oX c #BC8C92",
"OX c #BB8B9B",
"+X c #B7869B",
"@X c #BC9394",
"#X c #BC939A",
"$X c #BB9795",
"%X c #918DB2",
"&X c #A78BA4",
"*X c #A991A9",
"=X c #A896B7",
"-X c #B594B2",
";X c #AFA5BD",
":X c #C18D8E",
">X c #C28A8A",
",X c #C28D93",
"<X c #C38D9A",
"1X c #C39295",
"2X c #C49499",
"3X c #CA959C",
"4X c #C39A9B",
"5X c #CB9A9D",
"6X c #C59595",
"7X c #CE9996",
"8X c #C68DA3",
"9X c #CB96A1",
"0X c #CD9AA2",
"qX c #C598A3",
"wX c #D29CA4",
"eX c #D69EA9",
"rX c #D89DA9",
"tX c #CDA2A8",
"yX c #D4A2A5",
"uX c #D4A3A9",
"iX c #DAA2AC",
"pX c #D5A9AD",
"aX c #DAA8AC",
"sX c #DEA5B1",
"dX c #D9ACB2",
"fX c #DDB2B6",
"gX c #C4A0BA",
"hX c #E1A9B3",
"jX c #E1A6AE",
"kX c #C9A19F",
"lX c #8997CB",
"zX c #9396CD",
"xX c #A998C9",
"cX c #98A5C8",
"vX c #88A7DC",
"bX c #98A7D9",
"nX c #8CAED4",
"mX c #A6A8D9",
"MX c #B1AED2",
"NX c #89A9E5",
"BX c #98B3E9",
"VX c #A6B6EA",
"CX c #B5B8E5",
"ZX c #A8B0EE",
"AX c #C5BAE9",
"SX c #CFAFD4",
"DX c #99CEF9",
"FX c #B9C8E9",
"GX c #A9CFF3",
"HX c #9DE8FF",
"JX c #A9E5FD",
"KX c #C2E7FF",
/* pixels */
"O O O # + + $ # X O . . O O O O % 7 7 7 7 p ~ ~ >.`.+XOX2X2X0X9XqXqX0X0X9X9X9XoXoX_.`.o.W g p $ # O O X . . . X X O O # # # # # ",
"+ O + 6 6 $ 7 y y 7 y y y y 6 y s f v n g g ~ ~  .m. XXXoX1X1X1X2XqX9X3X,X,XoXoX_.{.<.} ^ P g f s 7 * $ % % # % y s n n f y $ $ ",
"i i u u u u u s s y u u u f u u v x n Z Z [ @.N.X.^.XX/._.{.>X6X1X6X6X6X1X:X'.'.A.>.%.} ^ ^ { ` ! n n C ! ....O.O.g.z.g...C n f ",
"u u v v Z [ ' i.v.E.E.E.k.f.f.0.Z M M k v Z Z Z z.).).XXoX`.{.{.{.:X:X{.{.{.<.<.;.>.+.:.+.{  .h.O.g.z.R.R.R.g.O.g.] [ [ [ Q C C ",
"c v Z 0.k.v.v.&X*X*X*X-X-X;X=X=X%X%X%XI.c.w.M B k k Z g.z.^.XX].`.@X@X!.B.B.,.,.N.O.O.g.[ [ Z n n n v s s s f f s s s s s y y 7 ",
"Z 0.f.k.v.v.E.&X*X&X*X*X*X=XxXAXAXCXCXmXmXcXxXMXMX;XW.k c Z i.E.R.).XX).^.).j.g...Z Z v c u v v N ' [ k.v.E.v.z.E.v.z.z.g.] [ N ",
"i.k.v.v.v.v.v.v.k.a.a.a.x.x.H.xXZXZXVXVXVXVXCXCXMXMXMX=Xl h l k u k Z Z v v u u k k h A =Xc.c.E.b.k.a.i.i.9.a.i.' ' ' ] p.g.g.] ",
"k.k.k.v.k.Z B B B 9.9.0.q.6.e.t.Y.Y.Y.BXBXVXbXt.q.H.%XMX%Xz l l 3 6 k k 6 @ o 3 h l e.FXMX%Xc.a.m B B a.a.9.9.9.i.N N b b N ' ' ",
"a.k.k.9.m m m B B m M M l z z y.r.r.r.Y.NXvXP.t.zX%Xc.c.%XA h l i 6 u k i + + 6 k l cXMX=Xw.B m B f.9.B V j m c c m m b x x b ' ",
"a.a.9.m V c 9 0 8 1 o ; > < < r.P.U.U.Y.NXP.8.mXmXzXc.c.f.v i k f u 7 6 6 7 u u h e.%XFXI.M M a.9.M j 8 2 , > ; 8 9 0 9 x s s Z ",
"9.7.M j 8 1 8 j M 2 > < < < 5 4 P.vXDXNXNX8.P.VXbXmX%Xq.0.u i v d d G g a p 7 u h h %XFX8.6.0.B j j h ; ; > > > 8 0.m 8 0 9 c B ",
"9.m j 8 1 1 j w.q.; 1 z z 4 : : 8.L.r.Y.Y.8.lXbXZXZXbXq.w.u s Q } >..XoXS.{ d f 8 h cXP.8.e.M j M 0.8 1 r l z 1 1 M 0.M 6 + 0 c ",
"7.m j 8 8 j 6.c.w.2 > > 5 5 : : L.L.8.Y.Y.8.y.lXBXNXlXy.t.r x C :.'.3X1XoX!.W s u h %XlX8.6.r V a.c.8 > > > > > > M f.Z j 6 6 9 ",
"B m c j r j 7.x.H.j 2 > < < : P.GXGXDXvXNXr.y.Y.ZXNXY.y.e.8 s g ;.[.3XoX[._./ s 3 h CXVX5.l m N k.c.j o > 1 , 1 8 0.f.Z v u 9 s ",
"' N b c c V B a.x.0.8 , 1 < t lXJXHXDXT.vXY.lXBXBXNXY.u.8.8 f W _.1X[.[.[._.o.g 6 3 %XP.5.6.B b b f.x.9 , , , 1 j f.a.b x x s x ",
"p.] ' N N N m B 7.9.0.M 6.e.e.cXJXHXT.T.NXvXZXGXVXNXr.Y.4 2 s { !.oXoX,X[._.<.W 6 @ l h w.c.i.Y ' N a.B m j j m Z Z b b x s x x ",
"l.g.p.[ ' ' N N Z N 9.Z Z 0.0.cXKXJXDXBXbXbXbXBXNXU.r.r.< 1 n } _.[.oX,X'.S.<.} s + 8 3 l f.i.Z ' a.a.' N B B B N b x s b n n N ",
"l.z.g.s.] p.s.s.p.' i.i.a.f.c.=XFXGXGXBXmXbXzXbXNXY.r.5., u ! ;._.].[.:X>X'.A.+.n # + + j 0.a.i.' ' Y Y Y N N N Y ' ' ' N N N [ ",
"^.z.z.h.h.h.h.l.l.l.b.b.v.v.f.c.q.I.%X%X=XH.q.%XmXZXlXz 8 [ >.<.].[.[.,X,X'._.>.{ s # 9 c ' p.k.s.] ' [ [ ' ' [ ] ] s.] [ ] ] O.",
"^.^.^.z.j.h.h.h.l.l.l.l.l.l.k.k.v.&XE.c.b.x.x.xXxXmX%X0.N  .%.<.[.[.,X,X:X[.{.>. .n s n ' p.d.d.d.s.s.s.| ] | g.| ] ] ] ] O.j.O.",
").).).).V.V.l.h.l.h.h.h.h.h.V.b.k.&XF.k.F.b.b.-XMXxXx.'  .;.>._.[.oX1X1X:X[.{.<.} ^ P ` [ | l.h.h.d.d.d.d.| | h.| | h.h.h.j.j.O.",
"|.|.|.)././.V.Z.V.Z.Z.C.V.Z.Z.l.l.+X+XZ.F.F.F.&XSX-X' s.>.<._.A.[.1X1X1X:X'._.>.} ^ I I ` h.Z.Z.m.m.h.m.m.h.h.h.h.N.N.^.V.N.N.j.",
"XXXXXX).)././.C.C.C.C.C.C.C.C.C.|.+X+X+X+X+X|.&XgXV.` :.>.>.A.oX,X1X1X1X:X'.{.>.( ^ ^ I ^ m.Z.C.C.m.m.m.m.Z.C.V.V.V.V.N./.N.N.N.",
"XXXXXXXXXX/. X/././. XC.C.C.C.C.XXOXOXOX8X8X#XqXh.` :.M.A.A.M._.,X,X,X1X1X[.'.<.} ^ ) I I :.+.C.S.S.C.m.m.m.m.B.C././.).).N.N./.",
"XXXX#X#XXX X).`./.B.m.m.B.C. X X X X8X8X<XOX X/. .>.M.D.2.2.A.'.:X,X1X1X1XoX_.<.} ) ) ) I } /./.S.S.S.C.M.M.M.M.B.C.`./.C./.!.N.",
" X XXXoXOXXX X`./.C.C.C.`. X X XoX<X8X+X+XoX_.;.<.A.S.D.A.A.A.S.:X1X3X3X1XoX_.,.} ) ( } ~ ^ N. XB.S.`. X`.S.B.M.S.C.C.N.N.C.M.N.",
" X X`.`.`. X X`. X X.XXXXXXXXXXX2X<X8X8X<XB.;.;.{.'.'.S.A.M.B._.[.1X3X5X3X1X`.,.o.~ ( ;.} { +.`.<X.X.XS.S.`.`. XB.B.B.C.S./.C.C.",
"oX].`./.S./.C.C.S.`..X.XXXXXoXoX'.'.S.G.*.:.A.1X1X,X`.B.B.B.!.`.[.1X5X5X0X3X`.,.;.~ ) o.:.;.} M.`.'..XoXOXoX.X.X.X.X`.`._.A.M.>.",
".X'.'.].]._.A.M.M.M.M.M.>.>.>.>.%.A.S.D.'.3X5XkX3XoX!.,.4.Q.!.`.[.1X5X0X0X3X].<.:.( ) ) :.<.:.<.>.>.>.>.M.A.S.'._.`._.S.A.A.>.:.",
"oX[.oX[.oXoX[.'.'.'..X.X,X<X3X3X9XwXrXrXyXyX5X6X,X[.B.@.,.4._._.1X6X5XwX0X3X[.!.1.} ~ ~ ( <._.oX'.{._.A.>.%.%.%.%.;.:.;.:.>.>.:.",
",X,X,X,X,X1X2X3X<X3X3X3X9XwXrXrXwXiXjXiXyXyX5X,XS.B.:.o.1.3._.'.6X5XyXyXwX3X[._.,.o.~ ~ ~ ;.{.3X3X3X3X2X,X,X,X,X'._._.S.S.A.A.<.",
",X,X,X1X3X3X3X3X3X3XwXwXrXrXiXjXhXhXjXiX5X5X1XA.>.>.;.o.1.3.'.,X6X5XyXuXyX5XoX].>.;.~ ~ ~ ) A.,XwX5X5X3X3X2X2X2X{._._.'.,XoX[.'.",
"oXoX1X2X3X3X3X0X0XwXiXiXiXsXjXjXhXhXjXwX5X3X{.>.%.;.;.;.<._.[.1X5XyXuXaXuX0X1X].<.;.( ~ ~ ~ ;.[.5XwXwXwX0X3X3X3X,XoX,XoX'.'.'.'.",
"[.oX2X3X5X5X0XwXwXwXiXsXhXhXjXiXiXiXiX0X3X,X<.;.;.>.>.>.B.`.@X5X0XyXuXaXuX0X4X[.!.,.o.) ~ ~ ( {.2X0XuXyXwXwXwX0X0X2X3X,X[.'.{.{.",
"oX,X2X3X9X0XwXuXrXiXsXhXhXhXsXiXiXwXwX3X,X_.>.>.>.<.<.<._.[.3XyXyXpXpXdXdXuX0X1X`.<.;.( ( ~ ~ <.oX3XwXwXwXuXeX0XwX3X3X2XoX[.{.{.",
"oX1X2X3X0X0XwXiXiXsXsXsXsXiXrXrXwX3X3X3X[.A.<.A._._.A.!.].@X4XyXuXaXaXdXfXpXtX4X].B.:.o.} ) ) :.{.,X0XwXwXuXwX0XwX3X3X,X[.[.'.'.",
"oX2X3X3X0XwXrXiXiXsXsXiXiXrXwXwX<X,X,X<X'.>.<._.`._.B.B.`.@X0XpXfXfXfXfXfXdXuX4XoX_.<.;.;.( ( ;._.'.,X3X0X0X0X0XeX9X5X2XoXoX{.`.",
"oX2X3X3XwXwXrXiXiXiXiXiXrXwX9X3X,X,X,X,X_.>.<._._.`.`._.`.@X0XpXfXfXfXfXdXdXuXqXoX`.M.;.;.} ( ;._._.oX2X3X3X9X0XeX0X0X3X,XoX[.`.",
"oX2X2X3X0XeXrXrXiXiXrXrXrXwX3X,X,X,XoX,X'.A.B.M.`.]._.!.`.oX#X0XtXpXpXpXpXtXqX#X X!.:.} } } } >._.'.oX<X2X9X0XwX0X9X0X3X1XoX[.].",
"oX2X2X2X9XwXrXrXiXiXwXwXwX9X3XoX'.,X,X3X2X'.A.:.;.} ^ ^ ;.!.oX4X4XtXtXtXpXqX4XXX/.:.} ^ } } } B.A.]..X.X,X2X9X9X0X9X0X2X1XoX[.].",
"oX2X2X2X5X0XwXeXiXrX0X0X9X,X'.oXoX2X3X3X2X,X_.>.} g a a g / !.@XqXtXqXtX0X#XOX/.} I d g G ~ :.B.A.`.[.oX'.oX3X3X9X2X3X2X1X@XoX].",
"oX2X2X2X5X0X0X0XwXwX3X3X<XoX_.'.oX2X5X2XoXoX].].,.} ^ ^ ^ ^ o.!.XXqX#XqXqXXXN.! G a * a I } M.C._.`.oXoXoXoX,X<X2X2X3X3X1XoX[.`.",
" X@X2X4X5X0X5X0X3X3X,X2XoX_.S.oX1X2X2XoXoXoXoXoX].`.N.:.} ^ ^ :.XX#X XXX).N.o.P d g P ^ } :.B._._.[.oXoXoXoXoXoX,X2X4X2X1X@X].`.",
"].oX2X4X2X5X3X3X3X2XoX'.M.C.].2X2X4XoXoX@X@X].].].].!.N.,.o./ { +.N.N.N.+.! P g I ^ } :.>.,.!.].].oXoXoX@XoX].oXoX,X@X@X1X@X[.`.",
"].oX@X4X4X3X3X3X2X,X_.>.>.].2X4X@X4X@X@X@XoX].].`.!.!.N.,.,.o.! { { / { ! g G I ^ / } o.:.<.!.`.].].].oX@X]._.`.`.].oXoX@XoX]._.",
"/.].@X4X4X3X3X1X,XB.;.M.oX4XqX4X@X@X].].].].].`.].].].!.B./.!.o.! I P G G G I ^ { } :.,.,.<.B.!.`.`.].XX@XoX].`.B.B.].oX[.]._._.",
"~.`.oX@X4X3X3XoXB.%.>.].4X4X4X#X@X~.~.(.`.].].`.!./.].`.`.]./.,.+.o.} } +.,.:.+.+.o.+.:.,.B.<.Q.~.~.`.].].oXoX[.!.:.B.].].{._.<.",
"~./.].@X@X1XoX_.} :.].`.XX].#X@X~.Q.(.]./.(.@XXXXX@XXX].oX@X@X4X2XoX].].XXoX]./.!.N.B.B.N.,.,.!.!.!.~.~.~.`.oX].`.;.o.!._.`.{.,.",
"Q.`.].@X1XoX[.A.;.`.@X+.!.Q.Q.Q.,.,.~.@X$X]./.XXoX@X#X XoX@X X@X@X@XoXoX].XX].].].`.!.N.,.N.N.+.,.Q.@.#.,.@.@.~.`.~.;.,._._._.o.",
"Q.`.].@X@X@X[.!.B.@X].{ { #.#.Q 1.o.,./.!./.oX4XoXoX4XoX@X2XoXoXoX].].[.oX@X[.].`.~.!.N.N.!.).N.{ / X.#.#.#._ Q o.,.o.,.].~.!.1.",
"Q.`.].@X@X@X[.!._.~./ ! ! Q Q ! ,.#.,././. XOX X<XoX2X<X,X3X2X2X[.[.oX2X3X1X@X2X@X@X@X X/./.N.o.Q X.{ { #.Q C ! Q 1.X.1.].`.Q.o.",
"4.~.].@X@X@X@X~.!.#.J W g g P X.,.,.!.]. XoXoX.X.X'.'.'.S.,X,X.X,X,X<X,X,X.X'.'.'.]. X]. XXX)./.o.o.X.{ Q ! Q #.Q X./ 1.].].,.o.",
",.~.].@X@X@X@X~.#.Q ! J g g d g ! { +.:. .^ U U U $.$.$.$.*.D.2.D.D.D.D.D.D.*.%.%. .}  .;.m.m.N.N.+.Q g p p g X./ ! X.,.~.~.,.#.",
"Q.~.].@X4X4X@X].@._ X.X.#.#.G a * w * w d F F F F S F H K L T &.&.&.&.$.R $.U U K H F F F F d d d d w p g W ! X.#.! o.Q.!.~.1.X.",
",.~.`.@X4X4X4X$X}.~.~.(.}.}.(.Q.o.! a & * e e e = & - = q = q S K K K F S D e q q q = w e w & & % * g X.#.Q.~.Q.Q.@.,.3.!.3.#./ ",
"@.N./.@X4X4X4X4X}.$X(.$X$X4X$X@X].].B.~ F F K K K L H S S S S S S S D q q q q q D S S F F d e a a I +.~.].}.~.Q.Q.].3.3.3.1.#.Q ",
"@.N./.(.4X4XtX4X$X$X~.}.@X4X4X@X@X].].B.%.U F H L T R R R R E n.E R R R R R T L L L K H F F F I I } B.`.].}.`.3.1.3.3.!.,.#._ Q ",
"@.j.N.XX].4X4X4X4X$X~.}.@X4X4X4X4X}.@X'.A.%.H H U T R -.n.n.n.K.J.J.K.J.n.n.n.E R T K H F H U } :.B.`.].].].].!.3.~.~.4.@.#.W W ",
"j.O.j.^./.XX@X$X4X$X].@X@X4X4X4X4X@X[.{.`.A.) U T T T R R E n.n.n.n.-.-.n.J.-.T L K K K U $.*.>.<.!._._.~.`._.3.3.~.!.#.#.Q C Q ",
"..O.j.@.(./.XX$X4X4X}.@X@X4X4X4XkX4X@X].`.`.A.A.D.D.*.&.=.R &.&.=.-.&.R =.=.R T T T $.*.*.>.A.<.<.!._._.`.~.!.<.3.4.,.#._ W ! Q ",
"f R.O.@.Q.(.~.@X@X4X@X4X$X@X@X@X4X5X4X@X[.[._._.S.S.S.D.G.*.&.=.&.D.D.G.&.$.R &.*.>.D.A.M.A.`._.!.~.`.`.`.~.3.,.3.1.#.#.! C ..f ",
"# ....@.@.(.Q.].].}.}.$X$X@X@X4X@X4X4X4X@X@X].`.<.A.'.'.S.S.D.D.>.>.*.M.D.M.*.>.D.A.S.A.B.!._._.!.~.!.!.~.Q.<.,.1.o.#.X.! Q C O ",
". i ..O.@.@.Q.~.~.`.].$X$X$X$X@X@X4X4X4X4X4X@X@X_.`.`._.S.S.S.S.B.>.M.B.A.A.A.S.'.'._._.!.!.Q.~.(./.~.!.Q.Q.,.,.o.o.X.Q ! C i   ",
"    f ..@.#.Q.!.!.~.~.}.}.$X$X@X@X4X4X4X4X4X@X4X1X@XoX]._._.'.'.A.<.>.<.M.A.'..X`.`._.!.`.`.~.`.(.(.~.~.Q.,.1.1.1.@.X.W C f .   "
};
