/* XPM */
static char *_c9f41ce5dd449e6e7f6966c7b3d3e196iWy3pQmaD4sEVru[] = {
/* columns rows colors chars-per-pixel */
"64 64 256 2 ",
"   c #040202",
".  c #0B0201",
"X  c #0B030A",
"o  c #0C0908",
"O  c #130202",
"+  c #1A0301",
"@  c #140B0B",
"#  c #1B0C0B",
"$  c #170808",
"%  c #1B110C",
"&  c #170B12",
"*  c #1C1415",
"=  c #240201",
"-  c #230D0B",
";  c #2B0D0B",
":  c #2A0704",
">  c #350A06",
",  c #24130D",
"<  c #2B140D",
"1  c #33130D",
"2  c #3B160D",
"3  c #260E15",
"4  c #241513",
"5  c #2C1613",
"6  c #2C1A14",
"7  c #291A1A",
"8  c #371A16",
"9  c #350E11",
"0  c #38241C",
"q  c #2B2218",
"w  c #291B22",
"e  c #321E25",
"r  c #2C2225",
"t  c #372726",
"y  c #3C2D32",
"u  c #49040B",
"i  c #45150D",
"p  c #431C14",
"a  c #471B19",
"s  c #521D1A",
"d  c #520B15",
"f  c #47241B",
"g  c #54271D",
"h  c #54311E",
"j  c #432B24",
"k  c #442D29",
"l  c #492826",
"z  c #522D2A",
"x  c #572A25",
"c  c #4C322C",
"v  c #46312B",
"b  c #54342B",
"n  c #5B342C",
"m  c #5D3A2D",
"M  c #573527",
"N  c #493736",
"B  c #523B35",
"V  c #5C3B34",
"C  c #543C3B",
"Z  c #553635",
"A  c #4B2D34",
"S  c #662926",
"D  c #66372B",
"F  c #733A2E",
"G  c #643C33",
"H  c #683B38",
"J  c #743A38",
"K  c #712B34",
"L  c #60211F",
"P  c #5A4238",
"I  c #6B4335",
"U  c #6C443C",
"Y  c #6D493C",
"T  c #654338",
"R  c #734B3C",
"E  c #784539",
"W  c #79503C",
"Q  c #583E48",
"!  c #4D3542",
"~  c #6E3B41",
"^  c #584345",
"/  c #5E5251",
"(  c #6C4C43",
")  c #664945",
"_  c #734C43",
"`  c #7C4C44",
"'  c #774946",
"]  c #6B5249",
"[  c #745143",
"{  c #7B5345",
"}  c #7C544B",
"|  c #7C584B",
" . c #74554D",
".. c #7D5D53",
"X. c #785956",
"o. c #6B4C53",
"O. c #79625C",
"+. c #745863",
"@. c #7F6866",
"#. c #82483C",
"$. c #81523E",
"%. c #843A43",
"&. c #874A46",
"*. c #84534D",
"=. c #835A4B",
"-. c #8B5C4C",
";. c #885546",
":. c #92544B",
">. c #925A4C",
",. c #934C54",
"<. c #875A54",
"1. c #945D52",
"2. c #975858",
"3. c #8C4F51",
"4. c #A05C5D",
"5. c #8C6455",
"6. c #84635B",
"7. c #8B655A",
"8. c #866457",
"9. c #936454",
"0. c #93645B",
"q. c #9C645A",
"w. c #946B5B",
"e. c #9B6C5D",
"r. c #986655",
"t. c #946651",
"y. c #A3655C",
"u. c #A36B5D",
"i. c #A8665B",
"p. c #A4745E",
"a. c #9D5C62",
"s. c #875F60",
"d. c #A45C64",
"f. c #876765",
"g. c #9D6B63",
"h. c #966864",
"j. c #9D7263",
"k. c #997469",
"l. c #997777",
"z. c #8E7875",
"x. c #A46C63",
"c. c #A76868",
"v. c #A47464",
"b. c #AB7365",
"n. c #AA7A65",
"m. c #AC756A",
"M. c #A5796A",
"N. c #AC7C6C",
"B. c #A57768",
"V. c #B3756B",
"C. c #B37D6C",
"Z. c #B67869",
"A. c #B86774",
"S. c #AD7D72",
"D. c #A77874",
"F. c #B37C71",
"G. c #BA7D73",
"H. c #B67776",
"J. c #AB6B70",
"K. c #C37979",
"L. c #C26C79",
"P. c #B3826D",
"I. c #BA826E",
"U. c #AD8273",
"Y. c #AB8579",
"T. c #B48373",
"R. c #BB8373",
"E. c #B4857A",
"W. c #BB857A",
"Q. c #BB8B7B",
"!. c #B78A77",
"~. c #B58973",
"^. c #94817D",
"/. c #C48B7C",
"(. c #C68879",
"). c #C9927D",
"_. c #D09279",
"`. c #B17D81",
"'. c #CA7C85",
"]. c #AC8783",
"[. c #B78B84",
"{. c #BC948A",
"}. c #BB9286",
"|. c #B49992",
" X c #B8A19A",
".X c #998C86",
"XX c #C58C83",
"oX c #CA8A87",
"OX c #C49384",
"+X c #CC9385",
"@X c #CC958A",
"#X c #C4998B",
"$X c #CC9A8C",
"%X c #C79789",
"&X c #D39B8C",
"*X c #D59888",
"=X c #CB9D92",
"-X c #C79B96",
";X c #D39D92",
":X c #DB9D92",
">X c #D49592",
",X c #D3828F",
"<X c #E19F90",
"1X c #D9A28D",
"2X c #CBA297",
"3X c #D4A294",
"4X c #DCA494",
"5X c #D4A49A",
"6X c #DCA59A",
"7X c #DCAB9C",
"8X c #DBAA96",
"9X c #DAB19F",
"0X c #E4A394",
"qX c #E3AA9C",
"wX c #E6A899",
"eX c #E9B29D",
"rX c #EBAB98",
"tX c #D8ABA2",
"yX c #DCB4A8",
"uX c #DCBCB5",
"iX c #C9ADA7",
"pX c #E7AEA3",
"aX c #E3B3A4",
"sX c #E3B5AB",
"dX c #ECBBAB",
"fX c #EAB7A7",
"gX c #F3B7A9",
"hX c #E8BCB4",
"jX c #F3BCB2",
"kX c #F1AFA3",
"lX c #EDC4B3",
"zX c #E9C7BA",
"xX c #F2C3B4",
"cX c #F5C8BA",
"vX c #EFCCB7",
"bX c #ECCBC2",
"nX c #F6CDC4",
"mX c #ECD3C8",
"MX c #FBDBCB",
"NX c #F6D6C8",
"BX c #FCDDD3",
"VX c #ECDDD2",
"CX c #FCE3CC",
"ZX c #FDE4D4",
"AX c #FFECD5",
"SX c #FEEBDA",
"DX c #F7E5D7",
"FX c #FEF3DC",
"GX c #FFF3D7",
"HX c #EEE4DA",
"JX c #FDEBE3",
"KX c #FEFBEB",
"LX c #FEF4E7",
"PX c #FEFCF4",
"IX c #FFFEF9",
"UX c #DBC9C5",
/* pixels */
"Z._._._.1XeXfXlXdXlXlXlXlXlXxXxXlXlXlXcXcXcXvXvXNXMXCXAXAXGXGXGXGXFXGXAXAXAXAXAXZXSXZXMXNXBXBXZXCXCXZXCXNXMXNXMXBXMXNXcXjXfXkXkX",
"Z.I.(.1X8XqXfXdXfXfXsXyXaXyXyXaXsXyXyXtX9XyXdXlXlXvXvXNXNXCXCXNXNXCXCXMXMXNXvXvXnXzXzXlXuXhXzXzXzXzXvXnXNXNXmXmXNXnXnXnXcXxXgXkX",
"P.!.%X3X3X=X5X2X-X{.[.{.2X2X}.].[.[.{.{.{.#X3X3X8XaXdXlXvXvXvXvXlXvXvXlXxXxXlXhXsXyX5X5X{.-X{.|. X2XiXiXiXuXiXuXuXuXzXbXbXcXjXfX",
"N.Q.Y.D.k.k.f.6.X.6.f...] ) ] X. .( | h.k.B.S.E.Q.$X8XaXfXfXfXfXfXfXfXfXfXdXpX3X$X#XS.D.k.k...6...O.O.@.z.l.z.z.f.f.l.].iXhXzXhX",
"k.6.( P V B b c k j k j 6 6 0 0 k 0 0 b T ( =.q.x.C./.+X1X4X4XqXeXqX4X4X4X4X&XW.S.g.<.' } V z c t y y t t r t N N v v N ) f.]. X",
"P j 0 j 0 0 0 , 5 , 6 6 - , 4 , 4 % , 6 8 f n E -.r.u.V.(.+X+X*X&X*X+X_.(.)./.C.0.E H z z 8 8 - 4 * $ $ # # , 4 7 6 t 0 8 t N P ",
"q , , 6 6 0 k 0 0 6 , $ . . . . o @ @ , < ; 2 f E ` ;.r.b.C.I.(.(.(.).(.I.C.b.1.` D f f 2 1 ; + $ $ O + $ + , 5 5 5 8 j k k j t ",
"q 6 6 0 k N B B N N t 4 % $ . @ . O . # , - 1 f g D I $.1.q.u.b.Z.Z.V.V.b.b.e.;.H x f a 8 1 5 - < , $ $ - 5 c T ] ) H ) C B c k ",
"r t t v N B P B P B N N N y t r r w w e 8 0 j l g G H E E ;.>.y.i.i.c.y.1.1.=.` U I V z b b k t 8 5 0 c B )  .....f.6.<.f. .^ C ",
"O O O O + + + + + + + $ # * w w e e k N C B B V V m G I G E *.1.q.x.2.1.*.} { } _  . . . .] ^ P C P ) ] ]  .X.6.k.D.].].l.l.f.X.",
"; 5 8 j c b b m b B B v v y r w 7 3 # $ # - 6 0 t c V P G ( ..h.h.k.h.7.6.6..... .] ( ) P C v v t t t 0 0 t t k c C ) o.o.X.@.X.",
"T ( ..8.8...| [ T P B N v t y y r r w 4 7 , % # . $ $ 6 t k C ] X... .) B c j 8 6 ; = + + $ $ # # * 4 4 7 7 6 5 5 ; = : = + + = ",
"R | =.=.| [ T M 0 0 < 6 # O % 7 r r r r y N ^ / N % . . . . . . . . O . . . . O + - 5 6 8 7 7 w 7 t y y y N C ) o.s.h.h.f.X.) Z ",
"=.=.=.{ W T z 2 ; 6 , , % $ $ o @ @ o o $ # 7 t N t % . . . .           o . $ k C C c 8 7 4 % * r w 7 t ! ^ ! B Q X.h.D.].{.{.].",
"-.-.=.{ Y b 8 ; ; , 7 $ O             % @ @ # 4 4 t 7 . .               o O t ) A l 9 = + $ o @ X @ & * w y C C V H ' <.D.M.S.[.",
"9.-.=.R n p 1 ; - # t @ o   o * * X   * % # $ 3 7 7 4 . . . . .       .   O B C a 9 : ; 3 & .     @ o o X @ 7 5 l ( H G 0.S.N.U.",
"9.-.{ I g > = = = e N & .     X X X @ t 4 % & 3 # 4 @ . . O + + O O . O O + B l 8 1 ; : 6 w @   X * w * X w N t # 0 B b T w.N.U.",
"9.-.W D g 2 : = ; 8 v r & @ @ & & X % q q @ o e w 7 % . . O : 9 1 1 - + O O b l 2 1 = : 5 7 X & X X X & X r / N 8 + 8 l M ` v.T.",
"t.;.E D n h p 1 ; 1 t y 4 4 7 7 w & 7 4 , 7 7 t 7 7 4 . O + Z ] <.) 5 O O $ ( b p : : 1 - # O $ & X & w w ! / C ; : : 2 n E -.n.",
"p.r.-.;.=.=.R G z f 8 j t v N N ^ r 7 8 k B j t t C 8 O O ) iXJXLXmX^.5 . + {.7.g p f 1 9 t A 3 r e y y ! ^ Q N Z H  .*.=.-.9.C.",
"p.p.p.p.e.t.;.R Y R ( [ ) C C Q ^ o.A 8 l H Z ( f.l.; O N mXLXPXPXPXPXz.O + {.hX0.g a l l A o.! Q Q +.+.+.+.o.f.k.h.D.[.T.N.C.P.",
"P.P.P.n.n.e.-.E W R R _ _ U H ) ) ) A l x D H 7.{...+ =  XDXPXKXIXIXLXUXk + k.MXsXg.x s x Z Q +.Q o.+.l.l.l.`.`.l.D.D.E.%X$X$X$X",
"!.~.P.P.n.p.t.;.$.E R I H D n n V H Z H H *.m.E.D.V = _ hXSXPXPXIXIXIXJXf.+ Y uXcXdXF.J s ~ X.o.o.o.o.f.k.D.].D.h.g.S.Q.OX$X4XqX",
"Q.Q.).Q.N.n.n.p.r.;.W E E E E E _ ` *.0.m.W.XXE.k.2 = {.vXMXKXIXIXIXIXLX X= f #XdXcXcX;Xh.' ~ ~ H ~ ' *.*.*.*.1.q.x.T.+X&X8XeXeX",
"=X}.[.}.Q.W.Q.!.P.N.b.v.v.g.x.v.v.g.F./.).&X!.N.| = H yXyXMXKXIXIXIXIXJXmXP = j.3XjXcXnXzX{.k.h.` E J E ` &.1.r.y.F.oX&X0XkXkXeX",
"#X-X=X=X=X=X%X%X%XOX/./.Q.W.W.W.Q./.+X&X+XR.B.M.n = T.7XdXMXKXIXIXIXKXHXVXY.= E %X8XaXxXZXMXnXtX%XQ.F.N.N.S.T.W.+X@X4XqXkXgXjXgX",
"-X#X5XtX5X5X5X5X3X$X%X%X%X%X$X&X&X&X1X4X).R.T.5.+ G tX7XfXNXLXIXIXIXKXHXbXuXg i N.%XaXxXMXMXZXZXMXvXlXsXyXyXyX9XaXaXdXcXxXjXjXgX",
"].D.}.tXtXyXtX5X$X$X$X=X3X3X3X3X7X8X4X&XI.T.j.g = }.7X8XaXNXLXPXPXIXKXVXmXNXh.: 9.%X$X5XlXMXZXAXAXAXCXMXNXvXvXzXlXlXvXcXlXxXcXxX",
"D.].-XtXtXtX2X2X=X3X5X7X7XqXaXaX7X3X1X/.P.N.R = =.5X3X7XsXNXJXPXPXKXLXDXmXmXyXf h Y.%X3XyXhXMXZXAXGXGXGXAXAXAXZXZXZXNXNXNXNXnXzX",
"x U k.{.-X2X2X-X5XtXyXsXsXaXaXaX9X3XOXOX!.I = p OX;X4XfXzXNXDXKXLXPXJXVXmXzXzX6.= <.#X}.5XtXsXzXNXDXAXFXLXLXLXFXSXSXZXZXZXNXbXzX",
"k.{ m m m U 7.h.M.Y.}.$X2X5X3X2X2XQ.U.5.f : > ' $X;XqXjXvXNXDXFXKXLXLXDXDXmXbX[.i > <.-X5X5XyXsXhXzXmXBXZXSXSXDXDXDXDXBXNXmXmXmX",
"Q.#X!.U.j.=.{ Y I I G D D D D D M M f p p a x v.6X:XfXjXzXNXDXDXLXKXKXFXDXmXnXyXU i > H [.tXhXsXhXhXzXbXNXBXZXSXJXJXJXSXBXBXNXzX",
"~.~.T.P.~.Q.Q.#X$X%XQ.T.M.e.9.-.-.;.;.E F S F +XkXpXpXjXbXZXJXJXKXKXKXFXDXDXmXmX[.U H a s H <.M.E.{.2XtXyXyXuXzXzXzXuXiX|.l.<.) ",
"R.R.R.p.p.P.N.~.~.~.T.P.N.m.v.e.q.;.F S F S i.wXkXkXgXjXnXBXJXKXKXLXKXFXDXCXMXBXNXY.} h.*.*.D H G G G G H H G H H H U _  .} h.].",
"Q.R.R.r.r.n.e.p.v.v.v.e.r.>.$.F S S S D S F :XkXwXqXkXdXcXNXBXSXAXAXFXAXCXZXMXnXMXnXh.0.h.M.!.T.E.Q.}.}.%X}.}.{.#X-XtXhXbXNXMXNX",
"/.R.C.u.r.u.>.1.9.1.-.;.E E D S S g D E D b.gXwXwXwXqXpXjXjXlXvXvXvXNXNXNXMXNXcXNXBXtX<.g.9.e.T.F.Q.%X;X6XtXtXaXsXtXtXsXhXhXhXhX",
"R.R.P.b.u.9.-.-.-.;.E F S S D F E #.&.&.:.*XwX*X*X*X*X*XwX4X4X7XaXsXsXlXxXdXdXcXcXnXnXq.;.r.q.u.b.m.Z.W.%X;X3X5X6X6X6XtXaXfXjXjX",
"C.T.C.b.e.1.>.;.;.#.E #.#.:.q.b.b.V.G.C.(.:X:X*XK.K.Z.K.(.(./.+X@X4X6X6XpX6X5XaXjXxXcXm.#.&.>.>.1.q.u.b.F./.+X@X:X6X6X4X6XfXgXpX",
"F.N.m.x.e.r.1.:.>.>.1.u.Z.(.oX+X:X*X*X<X*X(.).(.G.V.i.i.b.V.V.G.Z.(.oX+X@XXX+X$XqXpXjXi.F #.#.:.&.:.q.y.b.G./.@X&X&X4XqXqXqXpXfX",
"T.m.N.v.e.r.1.q.y.b.R.oX*X:X0X0X:X0XrXkX:XK.b.Z.b.y.:.>.i.V.V.V.Z.V.G.XXG.x.F.XXoXwX:X4.F #.#.J #.&.:.:.y.b.G.(.oX&X:X4X6XqXqXqX",
"N.m.b.v.u.q.u.b.V.(./.+X:XwXwXwX0X0XkXrX0X(.u.b.1.s u i &.v.F.F.H.G.G.y.J s S 3.H.oX(.c.2.:.#.&.&.&.&.:.1.i.b.G./.+X;X:X4XwX6XqX",
"N.m.v.x.e.u.b.V.G./.*X*X:X0X0X0X0XrXkXkXeX+Xy.&.S i i s x H 1.D.v.g.1.&.` J K J ,.H.+X@X/.m.1.>.#.&.&.:.1.y.b.G.(.oX&X;X4X4X4XqX",
"N.m.v.x.u.x.V.G.(.+X:X:X<X<X<X0XrXkXkXkXkX&Xb.F i > 9 p a x H ' *.*.` J J J H K 2.G.:XgXgX:XW.q.:.;.&.:.2.y.b.V.G.XX&X&X&X;X;X4X",
"B.B.v.v.v.b.C.R.).+X*X*X:X<X0X0XeXgXkXeXrX&XC.E a > : > 9 a z H H U G z x n ' <.D.oX:XpXgXgXpX@XF.x.1.:.2.q.c.V.G./.@X@X$X;X;X3X",
"v.M.v.v.v.b.C.R.(.)._.+X*X*X0XrXrXeXeXwX4XXXS.*.n p 1 : : 1 f V G z l a f z H <.D.XX3XpXdXjXxXpXOXm.2.1.2.q.b.F.G./.+X@X$X;X;X3X",
"v.m.M.v.b.V.I.(.(.(._._._.*X0XrXrX0XqX4X:XW.B.*.n p 1 1 ; 1 1 c z 8 9 a l l H 8.Y.{.5XfXdXfXjXdX6XW.q.1.1.q.b.F.(.XX@X%X$X;X$X=X",
"j.M.M.v.N.C.I.(.(.(.(.(.(.*X<X<X0X1X1X&X@XT.g.` z f 1 8 1 8 8 Z Z 8 8 j j 8 b ..k.E.2XaXaXaXaXpXfX&XC.q.:.1.x.m./.oX@X@X$X$X%X$X",
"e.v.v.v.N.P.C.I.I.I.I.R.(.*X1X*X$X$XQ.T.S.v.5._ b l f j f 8 0 l z 8 0 c c 0 c ( ..l.{.#X#X3X3X3X;X3X;XW.e.2.u.b.R./.@X@X$X$X$X$X",
"0.e.j.M.n.P.C.C.C.C.n.I./.&X$XQ.!.N.j.w.8.8.[ P l b f l l f 8 f f 2 l V c f c P ( ..k.j.M.Y.}.[.{.=X2X#X%XB.1.m.G.).+X&X3X3X$X=X",
"7.w.w.v.N.C.C.P.n.b.b.P.Q.Q.Q.N.j.=.} [ T [ Y m b V x n G n p 2 2 p z H n n T _ ( 8.7.=.k.h.j.k.U.!.{.#X#X!.v.b.G.).+X&X3X3X=X=X",
"<.0.w.e.m.N.C.C.C.p.p.n.T.U.U.j.R m G m V _ ( I U ` ' *.3.` x s s D *.<.*.*.<.| } 7.h.7.<.{ | } | 8.k.[.#X#XE.v.T.+X+X&X3X=X=X=X",
"| 7.h.5.v.n.N.N.N.p.p.N.U.j.w.| m M h z G Y _ _ *.1.2.c.c.c.g.2.g.c.H.J.J.D.D.h.s.g.h.7.0.} _ G G T { k.[.#X!.N.!.+X$X$X;X%X=X$X",
"| 7.7.5.e.v.B.N.N.B.j.j.w.8.W G m n x V Y { <.1.2.g.2.2.2.4.c.H.`.H.c.a.d.J.J.J.J.H.D.D.D.<.` z b n T | k.Y.E.T.Q.%X$X$X%X%X$X#X",
"..8.7.7.j.j.v.N.N.N.e.5.| W I T G V T | =.<.0.<.3.3.&.%.%.%.,.2.a.,.,.,.2.a.c.c.c.c.H.[.].D.0.D 2 l n U <.k.U.!.}.%X$X%XOX%XOX}.",
" .8.7.7.w.e.j.B.M.B.w.=.{ Y m M f p n _ | <.*.3.3.,.,.,.,.&.&.&.,.,.2.a.2.,.,.,.a.c.a.a.g.<.x > > 2 x H _ 5.U.[.OX%X+X%XW.OXE.E.",
"T ..7.8.=.w.e.e.N.j.=.I Y m z f : = : > p g a x S S S K K K K ~ ~ K S L d d d d L S K K K D x s i 2 f G Y =.Y.OXOXOXOXQ.N.Q.S.S.",
"Y  .f.8.} -.5.e.M.B.5.I M h m p > 1 p 2 > > d u u u d d u u u u u u u d K %.,.2.c.d.2.2.h.c.<.J g x D U ` <.M.}.OXOXT.v.S.Q.E.h.",
"T 6.6...<.5.-.w.j.v.w.R M M G f p p z _ ' J J J %.,.d.c.2.%.K K K %.,.A.'.,X,X,X,XoXoXG.oX=XW.q.*.&.&.*.-.5.N.!.!.T.N.e.S.}.Y.D.",
"b ] ....7.=.| -.w.e.5.{ I I I I m m U <.h.h.2.2.2.4.d.A.A.A.A.A.A.L.L.'.,X,X'.'.oXK.oX>X@X$X@XE.S.g.0.0.9.e.U.T.T.T.S.0.D.#X].].",
" .B ( ] | [ _ =.9.9.-.| R R R { =.7.w.w.x.m.c.c.c.4.2.4.d.c.A.A.A.A.L.L.L.'.'.oXoX>X>X@X>X;X;X4X%XT.x.9.0.v.N.N.m.B.M.j.D.[.].l.",
"z.v k )  ...| { 5.5.=.{ R R R | w.M.U.N.b.u.u.m.F.F.c.c.d.d.d.4.d.c.A.A.H.'.oX@X>X>XXXXX&X4X4X7X$XOXF.q.e.m.N.m.B.w.w.Y.D.l.l.X.",
"|.O.0 B )  .[ Y | 5.=.[ Y R [ { w.B.T.T.N.u.r.e.1.q.x.c.c.c.c.2.d.c.c.c.J.H.XXXXoXF.W.&X&X4XqX&X+X$XW.v.B.S.N.N.M.w.5.D.h.f.f.v ",
"|.z.y y ^ T T U { =.=._ Y I [ | e.v.P.P.P.n.p.r.9.;.` ;.` ` *.&.` *.*.` *.<.h.g.g.S./.$X4XwX1X*X$X$X/.N.N.T.M.v.e.w.7.k...) N , ",
" X.XB < B c b ( } | { _ I m R =.w.e.n.P.P.n.v.p.t.W I R D g x g x n n x n T { 7.j.S.OX1X1X&X*X*X$XOX!.F.T.T.N.v.9.w.w.l.f.B - # "
};
