/* XPM */
static char *_23be6c70dd3444dbaeeefa606731683rvuGODadehBqfJFi[] = {
/* columns rows colors chars-per-pixel */
"64 64 37 1 ",
"  c #464646",
". c #797373",
"X c #7B7B7B",
"o c #807B7B",
"O c #3B862B",
"+ c #40922F",
"@ c #459E33",
"# c #4AAA37",
"$ c #4AAD36",
"% c #4FB63B",
"& c #4FB93A",
"* c #54C13F",
"= c #55C33F",
"- c #5EC54B",
"; c #5FC74B",
": c #68C957",
"> c #69CB57",
", c #72CD63",
"< c #73CF63",
"1 c #7CD16F",
"2 c #87D57B",
"3 c #30A7CD",
"4 c #47B2D4",
"5 c #53B7D7",
"6 c #5FBCDA",
"7 c #6BC1DD",
"8 c #838383",
"9 c #868383",
"0 c #979797",
"q c #92D987",
"w c #93DB87",
"e c #9DDD93",
"r c #A8E19F",
"t c #83CBE3",
"y c #8FD0E6",
"u c #C2E4F2",
"i c #F6FBFD",
/* pixels */
"0000oooo00$$OO0000....  XXXX  ..0000000000oooooo$$OOoo0000000000",
"0000oooo00$$OO0000....  XXXX  ..0000000000oooooo$$OOoo0000000000",
"..00000000$$++....    XX00XXXX  ....000000000000$$##0000........",
"..00000000$$++....    XX00XXXX  ....000000000000$$##0000........",
"  ........$$OO    XXXXoo000099XX    ..0000000000$$##....        ",
"  ........$$OO    XXXXoo000099XX    ..0000000000$$##....        ",
"XX      $$::OOXXXX000000oo99oo00XXXX  ..........$$OO    XXXXXXXX",
"XX      $$::OOXXXX000000oo99oo00XXXX  ..........$$OO    XXXXXXXX",
"00XXXXXX&&++00000000000099oo00000000XX        $$::OOXXXX00000000",
"00XXXXXX&&++00000000000099oo00000000XX        $$::OOXXXX00000000",
"000099XXOO**....0000000099oo00000000..  XXXXXX$$;;00000000000000",
"000099XXOO**....0000000099oo00000000..  XXXXXX$$;;00000000000000",
"0099oo00++    ........99oo0000000000..  XX0000>>&*00000000000000",
"0099oo00++    ........99oo0000000000..  XX0000::;*00000000000000",
"99oo00$$OOXXXX        ..............  XX000000;;OO00999999oooo99",
"99oo00$$OOXXXX        ..............  XX000000;;OO00999999oooo99",
"oo0000$$OO0099XXXXXXXX                ..999999OOOO8899oooooooooo",
"oo0000$$OO0099XXXXXXXX                ..999999OOOO8899oooooooooo",
"000000OOOO99oo00000000XXXXXX    44    ..oooo##--ooXooo99000000$$",
"000000OOOO99oo00000000XXXXXX    44    ..oooo$$--oooooo99000000$$",
"000000##oooo00000000009900XX    66    ..0000OOOO0000oo99000000$$",
"000000##oooo00000000009900XX    66    ..0000OOOO0000oo99000000$$",
"0000$$##00000000000099oo0000XX  55tt  ..0000<<00000000oo9999$$*=",
"0000$$##00000000000099oo0000XX  55tt  ..0000<<00000000oo9999$$=&",
"9999$$##00000000000099oo0000XX  33yy    ..$$::000000999999oo$$=*",
"9999$$##00000000000099oo0000XX  33yy    ..$$::000000999999oo$$**",
"oooo;;++999999999999oo000000..    uu44  ..$$%%009999oooo9900$$**",
"oooo;;++999999999999oo000000..    uu44  ..$$%%009999oooo9900$$**",
"00$$OOOOoooooooooo99oo990000..    77ii    ;;##99oooo0099oo00$$##",
"00$$OOOOoooooooooo99oo990000..    77ii    ;;##99oooo0099oo00$$##",
"00$$##99oo00000099oooooo....        yy    ==@@oooo00oo990000@@@@",
"00$$##99oo00000099oooooo....        yy    ==@@oooo00oo990000@@@@",
"00**OOoo00000000990000....  XXXXXX      $$11OO....0099oo00$$@@00",
"00**OOoo00000000990000....  XXXXXX      $$11OO....0099oo00$$@@00",
"OOOO99oo000000990000..    XX0000XX      $$OO      ........$$OO..",
"OOOO99oo000000990000..    XX0000XX      $$OO      ........$$OO..",
"##00oo00000000........  XX000000..  XX99<<OO              $$11  ",
"##00oo00000000........  XX000000..  XX89<<OO              $$11  ",
"OO99oo0000....        XX........  XX00$$%%rrXXXX        $$<<OOXX",
"OO99oo0000....        XX........  XX00$$%%rrXXXX        $$<<OOXX",
"0099......    XXXXXX....        XXXo00$$OO0099ooXXXXXXXX;;@@OO00",
"0099......    XXXXXX....        XXoo00$$OO0099ooXXXXXXXX;;@@OO00",
"....        ........    XXXXXXXX999999wq%%00oooo00000000>>%%OO00",
"....        ........    XXXXXXXX999999wq%%00oooo00000000>>%%OO00",
"    XXXXXXXX  ..    XXXX000000oooo99ooqqOO99999999999999==@@0000",
"    XXXXXXXX  ..    XXXX000000oooo99ooqqOO99999999999999==@@0000",
"XXXXXX0099ooXX  XXXXXX0000000000ooooooOO0000000099oooooo&&##9999",
"XXXXXX0099ooXX  XXXXXX0000000000ooooooOO0000000099oooooo&&##9999",
"0000000099oo00XX    ....000000000000$#OO000000000099oo00$$%%oooo",
"0000000099oo00XX    ....000000000000$#OO000000000099oo00$$%%oooo",
"0000000000990000XXXX    ....00000000##,,9900000000oo990000OOOO00",
"0000000000990000XXXX    ....00000000##,,9900000000oo990000OOOO00",
"999900000099oo000000XXXX    ..0000$$;;009900000000oo990000$$OO00",
"999900000099oo000000XXXX    ..0000$$;;009900000000oo990000$$OO00",
"oooo999999##OOOO00000000....  ..00$$ee000099000000oooo999999OOOO",
"oooo999999##OOOO00000000....  ..00$$ee000099000000oooo999999OOOO",
"0000oo##%%OO<<%%OO00000000..  ..00;;##000099999999999999oooo$$OO",
"0000oo##%%OO<<%%OO00000000..  ..00;;##000099999999999999oooo$$OO",
"0000##,,22::$$**,,9999990000..  ..%%OO9999oooooooooo9999oo0000$$",
"0000##,,22::$$==<<9999990000..  ..%%OO9999oooooooooo9999oo0000$$",
"0000**<,##oo99$$22OOOO@@##OO..  $$%%Xooooooo00009999oooo000000OO",
"0000**,,##oo99$$22OOOO@@##OO..  $#%%oooooooo00009999oooo000000OO",
"0000qqOO000099$$$$<<;;++OO====;;::,,000000009999oooooo0000000000",
"0000qwOO000099$$$$<<;;++OO====;;>><<000000009999oooooo0000000000"
};
