/* XPM */
static char *_c57014546354ee7f1731cc0e2269e57XjHo8CQlPvzdLz6o[] = {
/* columns rows colors chars-per-pixel */
"64 64 103 2 ",
"   c None",
".  c #361E08",
"X  c #3F2207",
"o  c #2E3D3F",
"O  c #333030",
"+  c #343232",
"@  c #3B3837",
"#  c #3C3A3A",
"$  c #422508",
"%  c #43250A",
"&  c #4D2A08",
"*  c #502C0A",
"=  c #502C0C",
"-  c #5B3308",
";  c #5B310A",
":  c #5E330C",
">  c #5D330E",
",  c #5E340C",
"<  c #4C2F14",
"1  c #583617",
"2  c #693A0A",
"3  c #69380C",
"4  c #6C3A0E",
"5  c #6A3A10",
"6  c #633D1A",
"7  c #643D1A",
"8  c #433F3E",
"9  c #774012",
"0  c #774112",
"q  c #7C4B20",
"w  c #4B4745",
"e  c #4C4949",
"r  c #4D4A4A",
"t  c #534F4C",
"y  c #545050",
"u  c #555252",
"i  c #5B5753",
"p  c #5C5857",
"a  c #5D5959",
"s  c #64605E",
"d  c #4A6063",
"f  c #587275",
"g  c #656060",
"h  c #6B6761",
"j  c #6C6865",
"k  c #6D6867",
"l  c #6C6C67",
"z  c #74706C",
"x  c #75706E",
"c  c #74746E",
"v  c #7C7873",
"b  c #7D7875",
"n  c #7E7E7C",
"m  c #854610",
"M  c #874812",
"N  c #844814",
"B  c #884912",
"V  c #934D12",
"C  c #914F16",
"Z  c #945014",
"A  c #955014",
"S  c #9E5618",
"D  c #A15414",
"F  c #A15616",
"G  c #A25716",
"H  c #AE5D18",
"J  c #AF5E18",
"K  c #BB651A",
"L  c #BC651A",
"P  c #875223",
"I  c #885223",
"U  c #945926",
"Y  c #A06029",
"T  c #AB672C",
"R  c #AC672C",
"E  c #B86E2F",
"W  c #CA691A",
"Q  c #C96C1C",
"!  c #D6731E",
"~  c #C37532",
"^  c #C47532",
"/  c #CC7D38",
"(  c #CC7D39",
")  c #E07A23",
"_  c #E28230",
"`  c #84807A",
"'  c #85807C",
"]  c #CF8545",
"[  c #D28D51",
"{  c #D5955D",
"}  c #E89A57",
"|  c #D89D69",
" . c #DBA575",
".. c #668487",
"X. c #6D8C90",
"o. c #769397",
"O. c #7F9A9E",
"+. c #8C8884",
"@. c #9A9894",
"#. c #91A8AC",
"$. c #AFAFAC",
"%. c #E1B58D",
"&. c #E4BD99",
/* pixels */
"k k ' ' b b ` ' k j j j ` ' b b ' ' ' ' b b ' ' j j i i b b ' ' ' ' ' ' ' ' b b ' ' j j i i i i b b ' ' ' ' j j i i k k k k k k ",
"k k ' ' b b ' ' j j j j ' ' b b ' ' ' ' b b ' ' j j i i b b ' ' ' ' ' ' ' ' b b ' ' j j i i i i b b ' ' ' ' j j i i k k k k k k ",
"+.+.+.+.+.+.+.+.j j i i +.+.+.+.' ' b b b b i i j j i i ' ' ' ' ' ' ' ' b b ' ' j j j j i i x x x x k k x x j j i i ' ' k k x x ",
"+.+.+.+.+.+.+.+.j j i i +.+.+.+.' ' b b b b i i j j i i ' ' ' ' ' ' ' ' b b ' ' j j j h i i x x x x k k x x j j i i ' ' k k x x ",
"k k k k b b i i j j i i ' ' k j j j p p s s s s p p s s s s s s p p s s p p s s p p s s s s s s j j i i k k j j i i b b +.+.k k ",
"k k k k b b i i j j i i ' ' j j j j p p s s s s p p s s s s s s p p s s p p s s p p s s s s s s j j i i k k j j i i b b +.+.k k ",
"k j j j j j ` ` z z z z v v z z z z j j @ @ w w t t w w t t w w t t t t t t w w i i i i i i t t p p s s s s s s p p s s p p j j ",
"j j j j j j ` ` z z z z v v z z z z j j @ @ w w t t w w t t w w t t t t t t w w i i i i i i t y p p s s s s s s p p s s p p j j ",
"k k i i j j i i i i i i i i i i j j b b x x ' ' & & 3 3 ; ; & & & & & * % $ 3 , j k b b k k x x u u i i j j j j i i j j i i i i ",
"k k i i j j i i i i i i i i i i j j b b x x ' ' & & 3 3 ; ; & & & & * * % % ; , k k b b k k x x u y i i j j j j i i j j i i i i ",
"i i j j j j +.+.` ' ' ' b b b b j j c c 3 3 3 3 ] ] [ [ [ [ ^ ^ ] ] ] ] 5 5 U U K K _ _ g g g g x x k k j j i i +.+.j j i i b b ",
"i i j j j j +.+.' ' ' ' b b b b j j c c 3 3 3 3 ] ] [ [ [ [ ^ ^ ] ] ] ] 5 5 U U K K _ _ g g g g x x k k j j i i +.+.j j i i b b ",
"i i j j ' ' k j s s s s p p p p j j ; ; ] ] C C ^ ^ E E ^ ^ [ [ ^ ^ [ [ , 1 I I %.%.] ] Z Z j j k j j j j j b b k k j j i i b b ",
"i i j j ' ' j j s s s s p p p p j k ; ; ] ] C C ^ ^ E E ^ ^ [ [ ^ ^ [ [ ; 3 I I %.%.] ] Z Z j k j j j j j j b b k k j j i i b b ",
"i i j j y y # # w w t t w w h h X X E E ^ ^ = = ^ ^ ^ ^ E E [ [ E E ^ ^ 5 5 U Y { { E E ~ ^ ) ) i i i i j j j j j j j j j j j j ",
"i i j j y y # # w w t t w w h h X X E E ^ ^ = = ^ ^ ^ ^ E E [ [ E E ^ ^ 5 5 Y Y { { E E ~ ^ ) ) i i i i j j j j j j j j j j j j ",
"` ' x x k j i i k k x x l l a a & & ^ ^ ^ ^ % % E E E E ( ( ^ ^ E E ] ] N N Y Y ( ( ^ ^ ] ] Q Q +.+.' ' j j u u k k j j j j i i ",
"' ' x x j j i i k k x x l l a a & & ^ ^ ^ ^ % % E E E E ( ( ^ ^ E E ] ] N N Y Y ( ( ^ ^ ] ] Q Q +.+.' ' j j u u k k j j j j i i ",
"k k ' ' j j x x b b ' ' n n ; ; ( ( ^ ^  . .Z C ^ ^ E E ^ ^ E E E E 5 5 ^ ^ U U E E E E ( ( E E G G j j j j k k k k i i j j i i ",
"k k ' ' j j x x b b ' ' n n ; ; ( ( ^ ^  . .C C ^ ^ E E ^ ^ E E E E 5 5 ^ ^ U U E E E E ( ( E E G G j j j j k k k k i i j j i i ",
"b b ' ' j j s g b b b b 3 3 ( ( E E E E C C ] ] M M 4 4 4 4 : : , : 4 4 4 4 [ [ ^ ^ E E { { &.&.E E B B i i i i i i ' ' j j i i ",
"b b ' ` j j g g b b b b 3 3 ( ( E E E E C C ] ] M M 4 4 4 4 : , : : 4 4 4 5 [ [ ^ ^ E E { { &.&.E E B B i i i i i i ' ' j j i i ",
"x x j j +.+.b b x x b b m m ( ( E E | | = = ~ ~ F F                     F F R R ( ( [ [ ( ( ( ( ~ ^ } } k j k k x x ' ' j j i i ",
"x x j k +.+.b b x x b b m m ( ( E E | | = = ^ ~ F F                     F F R R ( ( [ [ ( ( ( ( ^ ^ } } j j k k x x ' ` j j i i ",
"' ' k j u u ' ' g g k k ; ; ^ ^ E E [ [ 0 0 E E H H                     * * Y Y ^ ^ ^ ^ [ [ [ [ ^ ^ G G j j k h k j j j j j j j ",
"' ' j j y y ' ' g g k k ; ; ^ ^ E E [ [ 0 0 E E H H                     * * Y Y ^ ^ ^ ^ [ [ [ [ ^ ^ G G j j j k j j j j j j j j ",
"b b j j b b j j j k & & ^ ^ ] ] E E ^ ^ N N ^ ^ 6 6 7 7 P P 1 1 < < 9 9 q q R R ^ ^ ^ ^ ^ ^ ^ ^ E E S S M B u u j j i i j j b b ",
"b b j j b b j j j k & & ^ ^ ] ] E E ^ ^ N N ^ ^ 6 6 7 7 P P 1 1 < < 9 9 q q T T ^ ^ ^ ^ ^ ^ ^ ^ E E S S B B u u j j i i j j b b ",
"j j j j j j p p a a 3 3 ( ( ^ ^ E E ^ ^ N N E E ^ ^ ( ( ^ ^ E E E E N N ^ ^ ^ ^ E E E E ^ ^ ( ( ] / . . L L b b j j i i b b ` ' ",
"j j j j j j p p a a 3 3 ( ( ^ ^ E E ^ ^ N N E E ^ ^ ( ( ^ ^ E E E E N N ^ ^ ^ ^ E E E E ^ ^ ( ( / / . . L K b b j k i i b b ' ' ",
"i i i i y y w w i i 2 3 ~ ^ E E ^ ^ ^ ^ N N E E E E ( ( E E ^ ^ E E N N E E E E E E ^ ^ E E ( ( E E 2 3 J J b b j j i i x x ' ' ",
"i i i i y y w w i i 3 3 ^ ^ E E ^ ^ ^ ^ N N E E E E ( ( E E ^ ^ E E N N E E E E E E ^ ^ E E ( ( E E 5 3 J J b b j j i i x x ' ' ",
"' ' p p p p w w ' ' ; ; E E ^ ^ E E E E 9 9 E E E E ^ ^ ^ ~ E E E E % % E E ^ ^ ^ ^ E E ^ ^ ( ( : : / / ! ! k j j j j j v b b b ",
"' ' p p p p w w ' ' ; ; E E ^ ^ E E E E 9 9 E E E E ^ ^ ^ ~ E E E E % % E E ^ ^ ^ ^ E E ^ ^ ( ( 1 : / / ! ! k j j j j j b b b b ",
"k k y y i i ' ' b b ; ; E E E E ^ ^ ^ ^ 5 5 ^ ^ ( ( ( ( ^ ^ E E ( ( C C ^ ^ E E E E E E E E ^ ^ 0 0 ^ ^ B B i i j j j j k k ` ' ",
"k k y y i i ' ' b b ; : E E E E ^ ^ ^ ^ 5 5 ^ ^ ( ( ( ( ^ ^ E E ( ( C C ^ ^ E E E E E E E E ^ ^ 0 4 ^ ^ B B i i j j j j k k ' ' ",
"O O p p ' ' ' ' V V / / E E ^ ^ E E N N ^ ^ E E E E ^ ^ ( ( E E C C R R E E E E E E E E ^ ^ E E B B ^ ^ [ [ B B i i i i k j j j ",
"O O p p ' ' ' ' V V ( ( E E ^ ^ E E N N ^ ^ E E E E ^ ^ ( ( E E C C R R E E E E E E E E ^ ^ E E N N ^ ^ [ [ B B i i i i k j j j ",
"y y x x @.@.b b W W ( ( ] ] E E ( ( N N ^ ^ E E U U d d ....o o d d f f E E ^ ^ ^ ^ E E E E E E 6 1 ^ ^ ^ ^ W Q ` ` j j i i k k ",
"y y z z @.@.b b W W ( ( ] ] E E ( ( N N ^ ^ E E U U d d ....o o d d f f E E ^ ^ ^ ^ E E E E E E ; : ^ ^ ^ ^ W W ' ' j j i i k k ",
"y y j j j j j j V V ( ( ( ( ^ ^ | { N N E E Y Y #.#.R E E E ~ ~ 5 5 E E #.#.E E E E ^ ^ ^ ^ E E 1 , E E ( ( G G ' ' ` ` a a i i ",
"y y j j j j j j V V ( ( ( ( ^ ^ { { N B E E Y Y #.#.E E E E ~ ~ 5 5 E E #.#.E E E E ^ ^ ^ ^ E E 3 , E E ( ( G G ' ' ` ` a a i i ",
"e e 8 8 ` ` b b 3 3 R R R R E E ] ] 4 0 E E ^ ^ ( ( O.O.....o.o.X.X.#.#.E E E E E E E E E E E E 3 5 E E E E G G b b b v w w i i ",
"e e 8 8 ` ` b b 3 3 R R R R E E ] ] 0 0 E E ^ ^ ( ( O.@.....o.o.X.X.#.#.E E E E E E E E E E E E 5 5 E E E E G G b b v v w w i i ",
"i i @ @ ` ` ' ' D D U U E E E E ( ( 0 0 ^ ^ ] ] ^ ^ ^ ^ E E E E N N ^ ^ R R ( ( E E E E ^ ^ ^ ^ N N ~ ~ ^ ^ V A ' ' z x t t x x ",
"i i @ @ ` ` ' ' D F U U E E E E ( ( 0 0 ^ ^ ] ] ^ ^ ^ ^ E E E E N N ^ ^ R R ( ( E E E E ^ ^ ^ ^ N N ~ ~ ^ ^ A A ' ' z x t t x x ",
"' ' j j @.@.b b V V R R E E ^ ^ ] ] 0 0 ] ] ^ ^ ^ ^ E E ^ ^ ^ ^ 5 5 E E ] ] [ [ R R E E E E E E N N E E E E J J ' ' p p @ @ ` ' ",
"' ' j j @.@.b b V V R R E E ^ ^ ] ] 0 0 ] ] ^ ^ ^ ^ E E ^ ^ ^ ^ 5 5 E E ] ] [ [ R R E E E E E E N N E E E E J J ' ' p i @ # ' ' ",
"$.$.y y ' ' ' ' 2 2 E E ^ ^ E E ( ( 4 4 ] ( R R ( ( E E ( ( ^ ^ 5 3 ^ ^ ~ ~ { { { { ^ ^ E E / / N N ~ ~ ~ ^ J J j j s s y y j j ",
"$.$.y y ' ' ' ' 2 2 E E ^ ^ E E ( ( 4 N ( ( R R ( ( E E ( ( ^ ^ 5 3 ^ ^ ^ ~ { | { { ^ ^ E E / / N N ^ ^ ~ ~ J J j j s g y y j j ",
"@.@.p p j j j j V V ~ ^ ^ ^ E E | | C C ] ] E R ^ ^ E E ] ] ] ] ; > E E E E ( ( / ( E E E E [ [ 5 5 E E E E J K i i i p w w i i ",
"@.@.p p j j j j V V ^ ^ ^ ^ E E | | C C ] ] R R ^ ^ E E ] ] ] ] > > E E E E ( ( ( ( E E E E [ [ 5 5 E E E E J H i i p p w w i i ",
"j j y y e e i i V V E E E E ^ ^ ^ ^ C C ( ( E E E E E E { { { { = = ^ ^ E E ( ( E E ^ ^ ~ ~ S S ^ ^ E E ^ ^ H H ' ' i i p p b b ",
"j j y y e e i i V V E E E E ^ ^ ^ ^ C C ( ( E E E E E E { { { { = = ^ ^ E E ( ( E E ^ ^ ~ ~ S S ^ ^ E E ^ ^ H H ' ' i i p p b b ",
"k k + + 8 8 ' ' ; ; ^ ^ E E E E N N ( ( ( ( ( ( ] ] E E ( ( 5 5 ( ( [ [ ^ ^ ^ ^ E E ] ] { { ; 3 ^ ^ ^ ^ E E H H ' ' b b p p k k ",
"k k + + 8 8 ' ' ; ; ^ ^ E E E E N M ( ( ( ( ( ( ] ] E E ( ( 5 5 ( ( [ [ ^ ^ ^ ^ E E ] ] { { > 1 ^ ^ ^ ^ E E H H ' ' b b p p k k ",
"i i j j p p b b X X ^ ^ E E E E = = / ^ { { ^ ^ ^ ^ E E ( ( > > ^ ^ ( ( ( ( | { ^ ^ ] ] ^ ^ 5 5 E E ] ] ( ( G G ' ' j j i p g s ",
"i i j j p p b b X X ^ ^ E E E E = = ^ ^ { { ^ ^ ^ ^ E E ( ( > 7 ^ ^ ( ( ( ( { { ^ ^ ] ] ^ ^ 5 5 E E ] ] ( ( G G ' ' j j p p s s ",
"b b t t s s b b 3 3 ] ] E E / / 0 0 ^ ^ E E ] ] ^ ^ E E ( ( 5 5 ^ ^ ( (  . .] ] ( ( ( ( R R 0 0 ^ ^ ^ ^ ^ ^ G G b v j j s s w w ",
"b b t t s s b b 3 3 ] ] E E / / 0 4 ^ ^ E E ] ] ^ ^ E E ( ( 4 4 ^ ^ ( (  . .] ] ( ( ( ( R R 0 0 ^ ^ ^ ^ ^ ^ G G v v j j s s w w ",
"i i ` ' j j +.+.; ; R R ] ] R R 9 N E E ] ] [ [ ^ ^ ^ ^ / / 4 4 E E { { ] ] ^ ^ ( ( ^ ^ R R = = E E ^ ^ E E H H @ @ i i y y k k ",
"i i ' ' j j +.+.- ; R R ] ] R R 9 4 E E ] ] [ [ ^ ^ ^ ^ / / 4 N E E { { ] ] ^ ^ ( ( ^ ^ R R = = E E ^ ^ E E H H @ @ i i y y k k ",
"a a k k k j i i & & R R | | [ [ 5 5 ^ ^ ^ ^ ( ( | | ( ( E E = = E E / / R R / / ] ] [ [ R R C C E E ^ ^ ( ( L L r r a a y y r r ",
"a a k k h k i i & & R R | | [ [ 5 5 ^ ^ ^ ^ ( ( | | ( ( E E = = E E / / R R / / ] ] [ [ R R C Z E E ^ ^ ( ( L K r r a a y y r r "
};
