/* XPM */
static char *e5a9e94e8a234eb9a4496be1a9af4881HsEqqUiMdyoPX239[] = {
/* columns rows colors chars-per-pixel */
"64 64 58 1 ",
"  c None",
". c #3F2207",
"X c #333030",
"o c #343232",
"O c #3B3837",
"+ c #3C3A3A",
"@ c #422508",
"# c #4D2A08",
"$ c #502C0A",
"% c #5B3308",
"& c #5B310A",
"* c #5E340C",
"= c #693A0A",
"- c #69380C",
"; c #433F3E",
": c #4B4745",
"> c #4C4949",
", c #4D4A4A",
"< c #534F4C",
"1 c #545050",
"2 c #555252",
"3 c #5B5753",
"4 c #5C5857",
"5 c #5D5959",
"6 c #64605E",
"7 c #656060",
"8 c #6B6761",
"9 c #6C6865",
"0 c #6D6867",
"q c #6C6C67",
"w c #74706C",
"e c #75706E",
"r c #74746E",
"t c #7C7873",
"y c #7D7875",
"u c #7E7E7C",
"i c #854610",
"p c #884912",
"a c #934D12",
"s c #945014",
"d c #955014",
"f c #9E5618",
"g c #A15414",
"h c #A25716",
"j c #AF5E18",
"k c #BB651A",
"l c #BC651A",
"z c #CA691A",
"x c #C96C1C",
"c c #D6731E",
"v c #E07A23",
"b c #E28230",
"n c #84807A",
"m c #85807C",
"M c #E89A57",
"N c #8C8884",
"B c #9A9894",
"V c #AFAFAC",
/* pixels */
"00mmyynm0999nmyymmmmyymm9933yymmmmmmmmyymm093333yynmmm0933000000",
"00mmyymm9999mmyymmmmyymm9933yymmmmmmmmyynn993333yymmmn9933000000",
"NNNNNNNN9933NNNNmmyyyy339933mmmmmmmmyymm999933eeee00ee9933nm00ee",
"NNNNNNNN9933NNNNmmyyyy339933mmmmmmmmyymm999933eeee00ee9933mm00ee",
"0000yy339933mm09994466664466666644664466446666660933009933yyNN00",
"0000yy339933mm99994466664466666644664466446666669933009933yyNN00",
"099999nnwwwwttwwww99OO::<<::<<::<<<<<<::333333<<4466666644664409",
"999999nnwwwwttwwww99OO::<<::<<::<<<<<<::333333<14466666644664499",
"003399333333333399yyeemm##--&&#####$@@**00yy00ee2233999933993333",
"003399333333333399yyeemm##--&&####$$@@**00yy00ee2133999933993333",
"339999NNnmmmyyyy99rr=---                klbb7777ee009933NN9933yy",
"339999NNmmmmyyyy99rr----                klbb7777ee009933NN9933yy",
"3399mm096666444499&&                        ss99099999yy009933yy",
"3399mm996666444490&&                        ss90999999yy009933yy",
"339911++::<<::88..                            vv3333999999999999",
"339911++::<<::88..                            vv3333999999999999",
"nmee093300eeqq55##                            xxNNnm992200999933",
"mmee993300eeqq55##                            xxNNmm992200999933",
"00mm99eeyymmuu&&                                hh09990000339933",
"00mm99eeyymmuu&&                                hh99990000339933",
"yymm9967yyyy--                                    pp333333mm9933",
"yymn9977yyyy--                                    pp333333mm9933",
"ee99NNyyeeyyii                                    MM0900eemm9933",
"ee90NNyyeeyyii                                    MM9900eemn9933",
"mm0922mm7700&&                                    hh999909999999",
"mm9911mm7700&&                                    hh999099999999",
"yy99yy9990##                                      ffpp22993399yy",
"yy99yy9990##                                      ffpp22993399yy",
"9999994455--                                        llyy9933yynm",
"9999994455--                                        lkyy9033yymm",
"333311::33=-                                        jjyy9933eemm",
"333311::33--                                        jjyy9933eemm",
"mm4444::mm&&                                        cc099999yyyy",
"mm4444::mm&&                                        cc999999yyyy",
"001133mmyy&&                                        pp33999900nm",
"001133mmyy&&                                        pp33999900mm",
"XX44mmmmaa                                            pp33330999",
"XX44mmmmaa                                            pp33339999",
"11ewBByyzz                                            xxnm993300",
"11wwBByyzz                                            xxmm993300",
"11999999aa                                            hhmmnn5533",
"11999999aa                                            hhmmnn5533",
">>;;nnyy--                                            hhyytt::33",
">>;;nnyy--                                            hhyytt::33",
"33OOnnnmgg                                            ssmmww1<ee",
"33OOnnmmgg                                            ssmnwe<<ee",
"nm99BByyaa                                            jjmm44OOnn",
"mm90BByyaa                                            jjmm44OOmm",
"VV11mmmm==                                            jj00661199",
"VV11mnmm==                                            jj99661199",
"BB449999aa                                            jj3344::33",
"BB449990aa                                            jj3344::33",
"0911>>33aa                                            jjmm3344ty",
"9911>>33aa                                            jjmn3344yy",
"00oo;;nm&&                                            jjmmyy4400",
"00oo;;mm&&                                            jjmmyy4400",
"339944yy..                                            hhmm994466",
"339944yy..                                            hhmm994466",
"yy<<66yy--                                            ghtt0966::",
"yy<<66yy--                                            gftt0966::",
"33nm99NN%%                                            kjOO331100",
"33mm99NN%%                                            jjOO331100",
"55009933##                                            ll,,5511,,",
"55009033##                                            ll,,5411,,"
};
